%TF.GenerationSoftware,KiCad,Pcbnew,(6.0.1)*%
%TF.CreationDate,2022-02-05T19:44:41+08:00*%
%TF.ProjectId,Type-C_Ext,54797065-2d43-45f4-9578-742e6b696361,rev?*%
%TF.SameCoordinates,Original*%
%TF.FileFunction,Copper,L1,Top*%
%TF.FilePolarity,Positive*%
%FSLAX46Y46*%
G04 Gerber Fmt 4.6, Leading zero omitted, Abs format (unit mm)*
G04 Created by KiCad (PCBNEW (6.0.1)) date 2022-02-05 19:44:41*
%MOMM*%
%LPD*%
G01*
G04 APERTURE LIST*
G04 Aperture macros list*
%AMRoundRect*
0 Rectangle with rounded corners*
0 $1 Rounding radius*
0 $2 $3 $4 $5 $6 $7 $8 $9 X,Y pos of 4 corners*
0 Add a 4 corners polygon primitive as box body*
4,1,4,$2,$3,$4,$5,$6,$7,$8,$9,$2,$3,0*
0 Add four circle primitives for the rounded corners*
1,1,$1+$1,$2,$3*
1,1,$1+$1,$4,$5*
1,1,$1+$1,$6,$7*
1,1,$1+$1,$8,$9*
0 Add four rect primitives between the rounded corners*
20,1,$1+$1,$2,$3,$4,$5,0*
20,1,$1+$1,$4,$5,$6,$7,0*
20,1,$1+$1,$6,$7,$8,$9,0*
20,1,$1+$1,$8,$9,$2,$3,0*%
G04 Aperture macros list end*
%TA.AperFunction,SMDPad,CuDef*%
%ADD10RoundRect,0.237500X0.250000X0.237500X-0.250000X0.237500X-0.250000X-0.237500X0.250000X-0.237500X0*%
%TD*%
%TA.AperFunction,ComponentPad*%
%ADD11R,1.700000X1.700000*%
%TD*%
%TA.AperFunction,ComponentPad*%
%ADD12O,1.700000X1.700000*%
%TD*%
%TA.AperFunction,SMDPad,CuDef*%
%ADD13R,1.450000X0.600000*%
%TD*%
%TA.AperFunction,SMDPad,CuDef*%
%ADD14R,1.450000X0.300000*%
%TD*%
%TA.AperFunction,ComponentPad*%
%ADD15O,2.100000X1.000000*%
%TD*%
%TA.AperFunction,ComponentPad*%
%ADD16O,1.600000X1.000000*%
%TD*%
%TA.AperFunction,ViaPad*%
%ADD17C,0.800000*%
%TD*%
%TA.AperFunction,Conductor*%
%ADD18C,0.762000*%
%TD*%
%TA.AperFunction,Conductor*%
%ADD19C,0.250000*%
%TD*%
%TA.AperFunction,Conductor*%
%ADD20C,0.200000*%
%TD*%
%TA.AperFunction,Conductor*%
%ADD21C,0.381000*%
%TD*%
%TA.AperFunction,Conductor*%
%ADD22C,0.635000*%
%TD*%
G04 APERTURE END LIST*
D10*
%TO.P,R1,1*%
%TO.N,/CC1*%
X122070500Y-78486000D03*
%TO.P,R1,2*%
%TO.N,GND*%
X120245500Y-78486000D03*
%TD*%
D11*
%TO.P,J2,1,Pin_1*%
%TO.N,VBUS*%
X120060009Y-95733006D03*
D12*
%TO.P,J2,2,Pin_2*%
%TO.N,/CC2*%
X120060009Y-93193006D03*
%TO.P,J2,3,Pin_3*%
%TO.N,/DP*%
X120060009Y-90653006D03*
%TO.P,J2,4,Pin_4*%
%TO.N,/DN*%
X120060009Y-88113006D03*
%TO.P,J2,5,Pin_5*%
%TO.N,/CC1*%
X120060009Y-85573006D03*
%TO.P,J2,6,Pin_6*%
%TO.N,GND*%
X120060009Y-83033006D03*
%TD*%
D13*
%TO.P,J1,A1,GND*%
%TO.N,GND*%
X109709000Y-86158000D03*
%TO.P,J1,A4,VBUS*%
%TO.N,VBUS*%
X109709000Y-86958000D03*
D14*
%TO.P,J1,A5,CC1*%
%TO.N,/CC1*%
X109709000Y-88158000D03*
%TO.P,J1,A6,D+*%
%TO.N,/DP*%
X109709000Y-89158000D03*
%TO.P,J1,A7,D-*%
%TO.N,/DN*%
X109709000Y-89658000D03*
%TO.P,J1,A8,SBU1*%
%TO.N,unconnected-(J1-PadA8)*%
X109709000Y-90658000D03*
D13*
%TO.P,J1,A9,VBUS*%
%TO.N,VBUS*%
X109709000Y-91858000D03*
%TO.P,J1,A12,GND*%
%TO.N,GND*%
X109709000Y-92658000D03*
%TO.P,J1,B1,GND*%
X109709000Y-92658000D03*
%TO.P,J1,B4,VBUS*%
%TO.N,VBUS*%
X109709000Y-91858000D03*
D14*
%TO.P,J1,B5,CC2*%
%TO.N,/CC2*%
X109709000Y-91158000D03*
%TO.P,J1,B6,D+*%
%TO.N,/DP*%
X109709000Y-90158000D03*
%TO.P,J1,B7,D-*%
%TO.N,/DN*%
X109709000Y-88658000D03*
%TO.P,J1,B8,SBU2*%
%TO.N,unconnected-(J1-PadB8)*%
X109709000Y-87658000D03*
D13*
%TO.P,J1,B9,VBUS*%
%TO.N,VBUS*%
X109709000Y-86958000D03*
%TO.P,J1,B12,GND*%
%TO.N,GND*%
X109709000Y-86158000D03*
D15*
%TO.P,J1,S1,SHIELD*%
X108794000Y-93728000D03*
X108794000Y-85088000D03*
D16*
X104614000Y-85088000D03*
X104614000Y-93728000D03*
%TD*%
D10*
%TO.P,R2,1*%
%TO.N,/CC2*%
X122070500Y-76454000D03*
%TO.P,R2,2*%
%TO.N,GND*%
X120245500Y-76454000D03*
%TD*%
D17*
%TO.N,GND*%
X121158000Y-77216000D03*
X122428000Y-88138000D03*
X124968000Y-88138000D03*
X116586000Y-90170000D03*
X120650000Y-102362000D03*
X117094000Y-82042000D03*
X124968000Y-84328000D03*
X122428000Y-95758000D03*
X112522000Y-82042000D03*
X114554000Y-87122000D03*
X122428000Y-83058000D03*
X122428000Y-90678000D03*
X125222000Y-98552000D03*
X116586000Y-96774000D03*
X110236000Y-101600000D03*
X109474000Y-77724000D03*
X106172000Y-81788000D03*
X120650000Y-105918000D03*
X109220000Y-82042000D03*
X120650000Y-98552000D03*
X106172000Y-73914000D03*
X125222000Y-102362000D03*
X106426000Y-101092000D03*
X124968000Y-77216000D03*
X106680000Y-105156000D03*
X106426000Y-96774000D03*
X114554000Y-90170000D03*
X109982000Y-96774000D03*
X125222000Y-105918000D03*
X121158000Y-73660000D03*
X112522000Y-87122000D03*
X121158000Y-80518000D03*
X124714000Y-73660000D03*
X124968000Y-80518000D03*
X106172000Y-77724000D03*
X104902000Y-89408000D03*
X124968000Y-93218000D03*
X112776000Y-96774000D03*
X104902000Y-87376000D03*
X116586000Y-87122000D03*
X109474000Y-73914000D03*
X109982000Y-105410000D03*
X104902000Y-91440000D03*
X112522000Y-90170000D03*
%TD*%
D18*
%TO.N,GND*%
X109709001Y-86003003D02*
X108793991Y-85087993D01*
D19*
X109709000Y-92658000D02*
X109709000Y-92813000D01*
D18*
X109709001Y-92812997D02*
X108793991Y-93728007D01*
D19*
X109709000Y-86158000D02*
X109709000Y-86003000D01*
D20*
%TO.N,/DP*%
X110740000Y-89158000D02*
X109709000Y-89158000D01*
X110744000Y-89154000D02*
X110740000Y-89158000D01*
X109709000Y-90158000D02*
X110756000Y-90158000D01*
X110998000Y-89408000D02*
X110744000Y-89154000D01*
X109709000Y-89158000D02*
X118565000Y-89158000D01*
X110756000Y-90158000D02*
X110998000Y-89916000D01*
X110998000Y-89916000D02*
X110998000Y-89408000D01*
X118565000Y-89158000D02*
X120060000Y-90653000D01*
D19*
%TO.N,/CC2*%
X109709000Y-91158000D02*
X118025000Y-91158000D01*
X118025000Y-91158000D02*
X120060000Y-93193000D01*
X120060009Y-93193006D02*
X122706994Y-93193006D01*
X123952000Y-78335500D02*
X122070500Y-76454000D01*
X123952000Y-91948000D02*
X123952000Y-78335500D01*
X122706994Y-93193006D02*
X123952000Y-91948000D01*
D20*
%TO.N,/DN*%
X109709000Y-88658000D02*
X119515000Y-88658000D01*
X108700000Y-88658000D02*
X108458000Y-88900000D01*
X108708000Y-89658000D02*
X109709000Y-89658000D01*
X119515000Y-88658000D02*
X120060000Y-88113000D01*
X108458000Y-88900000D02*
X108458000Y-89408000D01*
X108458000Y-89408000D02*
X108708000Y-89658000D01*
X109709000Y-88658000D02*
X108700000Y-88658000D01*
D19*
%TO.N,/CC1*%
X120060009Y-85573006D02*
X121690994Y-85573006D01*
X117475000Y-88158000D02*
X120060000Y-85573000D01*
X123190000Y-84074000D02*
X123190000Y-79605500D01*
X121690994Y-85573006D02*
X123190000Y-84074000D01*
X109709000Y-88158000D02*
X117475000Y-88158000D01*
X123190000Y-79605500D02*
X122070500Y-78486000D01*
D21*
%TO.N,VBUS*%
X109709001Y-91858008D02*
X108813270Y-91858008D01*
X107696000Y-90740738D02*
X107696000Y-88138000D01*
D22*
X116185010Y-91858008D02*
X120060009Y-95733006D01*
D21*
X107696000Y-88138000D02*
X108876008Y-86957992D01*
X108876008Y-86957992D02*
X109709001Y-86957992D01*
D22*
X109709001Y-91858008D02*
X116185010Y-91858008D01*
D21*
X108813270Y-91858008D02*
X107696000Y-90740738D01*
%TD*%
%TA.AperFunction,Conductor*%
%TO.N,GND*%
G36*
X126180121Y-72156002D02*
G01*
X126226614Y-72209658D01*
X126238000Y-72262000D01*
X126238000Y-106808000D01*
X126217998Y-106876121D01*
X126164342Y-106922614D01*
X126112000Y-106934000D01*
X104012000Y-106934000D01*
X103943879Y-106913998D01*
X103897386Y-106860342D01*
X103886000Y-106808000D01*
X103886000Y-102340924D01*
X113049418Y-102340924D01*
X113049835Y-102348150D01*
X113065179Y-102614257D01*
X113066004Y-102618462D01*
X113066005Y-102618470D01*
X113094848Y-102765483D01*
X113117889Y-102882923D01*
X113119276Y-102886974D01*
X113137275Y-102939544D01*
X113206573Y-103141950D01*
X113208499Y-103145779D01*
X113271495Y-103271032D01*
X113329591Y-103386544D01*
X113332017Y-103390073D01*
X113332020Y-103390079D01*
X113366642Y-103440454D01*
X113484666Y-103612179D01*
X113668929Y-103814681D01*
X113878969Y-103990302D01*
X114110901Y-104135792D01*
X114114803Y-104137554D01*
X114114807Y-104137556D01*
X114356520Y-104246694D01*
X114356524Y-104246696D01*
X114360432Y-104248460D01*
X114364551Y-104249680D01*
X114618832Y-104325002D01*
X114618837Y-104325003D01*
X114622945Y-104326220D01*
X114627179Y-104326868D01*
X114627184Y-104326869D01*
X114889340Y-104366984D01*
X114889342Y-104366984D01*
X114893582Y-104367633D01*
X115032913Y-104369822D01*
X115163045Y-104371867D01*
X115163051Y-104371867D01*
X115167336Y-104371934D01*
X115439141Y-104339042D01*
X115703967Y-104269566D01*
X115956914Y-104164792D01*
X116193301Y-104026658D01*
X116408754Y-103857722D01*
X116453539Y-103811508D01*
X116596303Y-103664186D01*
X116599286Y-103661108D01*
X116601819Y-103657660D01*
X116601823Y-103657655D01*
X116758834Y-103443909D01*
X116761372Y-103440454D01*
X116763418Y-103436686D01*
X116889962Y-103203621D01*
X116889963Y-103203619D01*
X116892012Y-103199845D01*
X116988789Y-102943732D01*
X117049912Y-102676854D01*
X117062031Y-102541075D01*
X117074031Y-102406616D01*
X117074251Y-102404151D01*
X117074692Y-102362000D01*
X117072964Y-102336653D01*
X117056362Y-102093123D01*
X117056361Y-102093117D01*
X117056070Y-102088846D01*
X117000550Y-101820747D01*
X116909157Y-101562664D01*
X116901277Y-101547395D01*
X116785550Y-101323178D01*
X116785549Y-101323177D01*
X116783585Y-101319371D01*
X116781122Y-101315866D01*
X116628619Y-101098877D01*
X116628614Y-101098871D01*
X116626155Y-101095372D01*
X116439782Y-100894811D01*
X116436466Y-100892097D01*
X116436463Y-100892094D01*
X116231233Y-100724114D01*
X116231226Y-100724109D01*
X116227915Y-100721399D01*
X115994472Y-100578345D01*
X115990555Y-100576626D01*
X115990552Y-100576624D01*
X115880232Y-100528197D01*
X115743775Y-100468297D01*
X115739647Y-100467121D01*
X115739644Y-100467120D01*
X115658557Y-100444022D01*
X115480462Y-100393290D01*
X115476220Y-100392686D01*
X115476214Y-100392685D01*
X115277596Y-100364418D01*
X115209406Y-100354713D01*
X115065671Y-100353961D01*
X114939908Y-100353302D01*
X114939902Y-100353302D01*
X114935622Y-100353280D01*
X114931378Y-100353839D01*
X114931374Y-100353839D01*
X114812397Y-100369503D01*
X114664177Y-100389016D01*
X114660037Y-100390149D01*
X114660035Y-100390149D01*
X114644251Y-100394467D01*
X114400093Y-100461261D01*
X114148257Y-100568678D01*
X113913329Y-100709280D01*
X113909978Y-100711964D01*
X113909976Y-100711966D01*
X113898202Y-100721399D01*
X113699657Y-100880463D01*
X113511194Y-101079062D01*
X113351428Y-101301400D01*
X113223314Y-101543364D01*
X113129225Y-101800477D01*
X113070899Y-102067980D01*
X113049418Y-102340924D01*
X103886000Y-102340924D01*
X103886000Y-94821933D01*
X103906002Y-94753812D01*
X103959658Y-94707319D01*
X104029932Y-94697215D01*
X104050099Y-94701831D01*
X104097541Y-94716881D01*
X104109532Y-94719430D01*
X104253761Y-94735607D01*
X104260785Y-94736000D01*
X104341885Y-94736000D01*
X104357124Y-94731525D01*
X104358329Y-94730135D01*
X104360000Y-94722452D01*
X104360000Y-94717885D01*
X104868000Y-94717885D01*
X104872475Y-94733124D01*
X104873865Y-94734329D01*
X104881548Y-94736000D01*
X104960657Y-94736000D01*
X104966805Y-94735699D01*
X105104603Y-94722188D01*
X105116638Y-94719805D01*
X105294076Y-94666233D01*
X105305416Y-94661559D01*
X105469077Y-94574540D01*
X105479294Y-94567751D01*
X105622933Y-94450603D01*
X105631637Y-94441959D01*
X105749784Y-94299144D01*
X105756644Y-94288973D01*
X105844804Y-94125924D01*
X105849556Y-94114619D01*
X105885250Y-93999308D01*
X105885331Y-93993768D01*
X107271425Y-93993768D01*
X107303138Y-94101521D01*
X107307731Y-94112889D01*
X107393607Y-94277154D01*
X107400321Y-94287415D01*
X107516468Y-94431873D01*
X107525046Y-94440632D01*
X107667039Y-94559778D01*
X107677159Y-94566708D01*
X107839585Y-94656002D01*
X107850858Y-94660834D01*
X108027538Y-94716880D01*
X108039532Y-94719430D01*
X108183761Y-94735607D01*
X108190785Y-94736000D01*
X108521885Y-94736000D01*
X108537124Y-94731525D01*
X108538329Y-94730135D01*
X108540000Y-94722452D01*
X108540000Y-94717885D01*
X109048000Y-94717885D01*
X109052475Y-94733124D01*
X109053865Y-94734329D01*
X109061548Y-94736000D01*
X109390657Y-94736000D01*
X109396805Y-94735699D01*
X109534603Y-94722188D01*
X109546638Y-94719805D01*
X109724076Y-94666233D01*
X109735416Y-94661559D01*
X109899077Y-94574540D01*
X109909294Y-94567751D01*
X110052933Y-94450603D01*
X110061637Y-94441959D01*
X110179784Y-94299144D01*
X110186644Y-94288973D01*
X110274804Y-94125924D01*
X110279556Y-94114619D01*
X110315250Y-93999308D01*
X110315456Y-93985205D01*
X110308701Y-93982000D01*
X109066115Y-93982000D01*
X109050876Y-93986475D01*
X109049671Y-93987865D01*
X109048000Y-93995548D01*
X109048000Y-94717885D01*
X108540000Y-94717885D01*
X108540000Y-94000115D01*
X108535525Y-93984876D01*
X108534135Y-93983671D01*
X108526452Y-93982000D01*
X107286076Y-93982000D01*
X107272545Y-93985973D01*
X107271425Y-93993768D01*
X105885331Y-93993768D01*
X105885456Y-93985205D01*
X105878701Y-93982000D01*
X104886115Y-93982000D01*
X104870876Y-93986475D01*
X104869671Y-93987865D01*
X104868000Y-93995548D01*
X104868000Y-94717885D01*
X104360000Y-94717885D01*
X104360000Y-93455885D01*
X104868000Y-93455885D01*
X104872475Y-93471124D01*
X104873865Y-93472329D01*
X104881548Y-93474000D01*
X105871924Y-93474000D01*
X105885455Y-93470027D01*
X105886575Y-93462232D01*
X105854862Y-93354479D01*
X105850269Y-93343111D01*
X105764393Y-93178846D01*
X105757679Y-93168585D01*
X105641532Y-93024127D01*
X105632954Y-93015368D01*
X105490961Y-92896222D01*
X105480841Y-92889292D01*
X105318415Y-92799998D01*
X105307142Y-92795166D01*
X105130462Y-92739120D01*
X105118468Y-92736570D01*
X104974239Y-92720393D01*
X104967215Y-92720000D01*
X104886115Y-92720000D01*
X104870876Y-92724475D01*
X104869671Y-92725865D01*
X104868000Y-92733548D01*
X104868000Y-93455885D01*
X104360000Y-93455885D01*
X104360000Y-92738115D01*
X104355525Y-92722876D01*
X104354135Y-92721671D01*
X104346452Y-92720000D01*
X104267343Y-92720000D01*
X104261195Y-92720301D01*
X104123397Y-92733812D01*
X104111362Y-92736195D01*
X104048418Y-92755199D01*
X103977424Y-92755740D01*
X103917407Y-92717812D01*
X103887423Y-92653458D01*
X103886000Y-92634577D01*
X103886000Y-90777590D01*
X106992830Y-90777590D01*
X106994135Y-90785066D01*
X106994135Y-90785070D01*
X107003663Y-90839662D01*
X107004626Y-90846187D01*
X107012191Y-90908698D01*
X107014875Y-90915800D01*
X107015719Y-90919238D01*
X107019583Y-90933361D01*
X107020613Y-90936772D01*
X107021919Y-90944255D01*
X107024972Y-90951210D01*
X107047239Y-91001936D01*
X107049730Y-91008042D01*
X107071994Y-91066960D01*
X107076293Y-91073215D01*
X107077935Y-91076356D01*
X107085033Y-91089110D01*
X107086870Y-91092216D01*
X107089923Y-91099171D01*
X107094548Y-91105198D01*
X107094550Y-91105202D01*
X107128265Y-91149140D01*
X107132129Y-91154458D01*
X107167821Y-91206390D01*
X107173491Y-91211442D01*
X107173492Y-91211443D01*
X107213688Y-91247256D01*
X107218964Y-91252237D01*
X107590579Y-91623852D01*
X107624605Y-91686164D01*
X107619540Y-91756979D01*
X107605697Y-91783768D01*
X107523723Y-91904388D01*
X107456470Y-92072534D01*
X107455356Y-92079262D01*
X107455355Y-92079266D01*
X107430895Y-92227017D01*
X107426892Y-92251198D01*
X107427249Y-92258015D01*
X107427249Y-92258019D01*
X107430672Y-92323321D01*
X107436370Y-92432047D01*
X107438181Y-92438620D01*
X107438181Y-92438623D01*
X107465968Y-92539504D01*
X107484461Y-92606641D01*
X107568922Y-92766836D01*
X107573327Y-92772049D01*
X107573330Y-92772053D01*
X107591694Y-92793783D01*
X107620386Y-92858724D01*
X107609413Y-92928868D01*
X107575092Y-92972754D01*
X107535067Y-93005397D01*
X107526363Y-93014041D01*
X107408216Y-93156856D01*
X107401356Y-93167027D01*
X107313196Y-93330076D01*
X107308444Y-93341381D01*
X107272750Y-93456692D01*
X107272544Y-93470795D01*
X107279299Y-93474000D01*
X108521885Y-93474000D01*
X108537124Y-93469525D01*
X108538329Y-93468135D01*
X108540000Y-93460452D01*
X108540000Y-93173830D01*
X108560002Y-93105709D01*
X108612218Y-93060257D01*
X108615675Y-93059094D01*
X108644433Y-93041815D01*
X108705042Y-93005397D01*
X108770905Y-92965823D01*
X108775862Y-92961135D01*
X108775865Y-92961133D01*
X108835427Y-92904807D01*
X108898664Y-92872535D01*
X108969311Y-92879575D01*
X109024937Y-92923691D01*
X109048000Y-92996355D01*
X109048000Y-93455885D01*
X109052475Y-93471124D01*
X109053865Y-93472329D01*
X109061548Y-93474000D01*
X109436885Y-93474000D01*
X109452124Y-93469525D01*
X109453329Y-93468135D01*
X109455000Y-93460452D01*
X109455000Y-92930115D01*
X109450525Y-92914876D01*
X109439947Y-92905710D01*
X109395786Y-92881596D01*
X109361761Y-92819284D01*
X109366825Y-92748468D01*
X109409372Y-92691632D01*
X109475892Y-92666821D01*
X109484881Y-92666500D01*
X109525525Y-92666500D01*
X109553010Y-92669535D01*
X109616385Y-92683701D01*
X109621876Y-92684008D01*
X109837000Y-92684008D01*
X109905121Y-92704010D01*
X109951614Y-92757666D01*
X109963000Y-92810008D01*
X109963000Y-93455885D01*
X109967475Y-93471124D01*
X109968865Y-93472329D01*
X109976548Y-93474000D01*
X110301924Y-93474000D01*
X110311790Y-93471103D01*
X110347288Y-93465999D01*
X110478669Y-93465999D01*
X110485490Y-93465629D01*
X110536352Y-93460105D01*
X110551604Y-93456479D01*
X110672054Y-93411324D01*
X110687649Y-93402786D01*
X110789724Y-93326285D01*
X110802285Y-93313724D01*
X110878786Y-93211649D01*
X110887324Y-93196054D01*
X110932478Y-93075606D01*
X110936105Y-93060351D01*
X110941631Y-93009486D01*
X110942000Y-93002672D01*
X110942000Y-92810008D01*
X110962002Y-92741887D01*
X111015658Y-92695394D01*
X111068000Y-92684008D01*
X115790679Y-92684008D01*
X115858800Y-92704010D01*
X115879774Y-92720913D01*
X116614747Y-93455885D01*
X117980796Y-94821933D01*
X118664604Y-95505741D01*
X118698629Y-95568053D01*
X118701509Y-95594836D01*
X118701509Y-96631140D01*
X118708264Y-96693322D01*
X118759394Y-96829711D01*
X118846748Y-96946267D01*
X118963304Y-97033621D01*
X119099693Y-97084751D01*
X119161875Y-97091506D01*
X120958143Y-97091506D01*
X121020325Y-97084751D01*
X121156714Y-97033621D01*
X121273270Y-96946267D01*
X121360624Y-96829711D01*
X121411754Y-96693322D01*
X121418509Y-96631140D01*
X121418509Y-94834872D01*
X121411754Y-94772690D01*
X121360624Y-94636301D01*
X121273270Y-94519745D01*
X121156714Y-94432391D01*
X121144141Y-94427678D01*
X121038212Y-94387966D01*
X120981448Y-94345324D01*
X120956748Y-94278762D01*
X120971956Y-94209414D01*
X120993502Y-94180733D01*
X121048503Y-94125924D01*
X121098105Y-94076495D01*
X121164806Y-93983671D01*
X121225444Y-93899283D01*
X121228462Y-93895083D01*
X121230755Y-93890443D01*
X121232455Y-93887614D01*
X121284683Y-93839524D01*
X121340460Y-93826506D01*
X122628227Y-93826506D01*
X122639410Y-93827033D01*
X122646903Y-93828708D01*
X122654829Y-93828459D01*
X122654830Y-93828459D01*
X122714980Y-93826568D01*
X122718939Y-93826506D01*
X122746850Y-93826506D01*
X122750785Y-93826009D01*
X122750850Y-93826001D01*
X122762687Y-93825068D01*
X122794945Y-93824054D01*
X122798964Y-93823928D01*
X122806883Y-93823679D01*
X122826337Y-93818027D01*
X122845694Y-93814019D01*
X122857924Y-93812474D01*
X122857925Y-93812474D01*
X122865791Y-93811480D01*
X122873162Y-93808561D01*
X122873164Y-93808561D01*
X122906906Y-93795202D01*
X122918136Y-93791357D01*
X122952977Y-93781235D01*
X122952978Y-93781235D01*
X122960587Y-93779024D01*
X122967406Y-93774991D01*
X122967411Y-93774989D01*
X122978022Y-93768713D01*
X122995770Y-93760018D01*
X123014611Y-93752558D01*
X123050381Y-93726570D01*
X123060301Y-93720054D01*
X123091529Y-93701586D01*
X123091532Y-93701584D01*
X123098356Y-93697548D01*
X123112677Y-93683227D01*
X123127711Y-93670386D01*
X123137688Y-93663137D01*
X123144101Y-93658478D01*
X123172292Y-93624401D01*
X123180282Y-93615622D01*
X124344247Y-92451657D01*
X124352537Y-92444113D01*
X124359018Y-92440000D01*
X124405659Y-92390332D01*
X124408413Y-92387491D01*
X124428134Y-92367770D01*
X124430612Y-92364575D01*
X124438318Y-92355553D01*
X124463158Y-92329101D01*
X124468586Y-92323321D01*
X124478346Y-92305568D01*
X124489199Y-92289045D01*
X124496753Y-92279306D01*
X124501613Y-92273041D01*
X124519176Y-92232457D01*
X124524383Y-92221827D01*
X124545695Y-92183060D01*
X124547666Y-92175383D01*
X124547668Y-92175378D01*
X124550732Y-92163442D01*
X124557138Y-92144730D01*
X124562034Y-92133417D01*
X124565181Y-92126145D01*
X124572097Y-92082481D01*
X124574504Y-92070860D01*
X124583528Y-92035711D01*
X124583528Y-92035710D01*
X124585500Y-92028030D01*
X124585500Y-92007769D01*
X124587051Y-91988058D01*
X124588979Y-91975885D01*
X124590219Y-91968057D01*
X124586059Y-91924046D01*
X124585500Y-91912189D01*
X124585500Y-78414267D01*
X124586027Y-78403084D01*
X124587702Y-78395591D01*
X124585562Y-78327500D01*
X124585500Y-78323543D01*
X124585500Y-78295644D01*
X124584996Y-78291653D01*
X124584063Y-78279811D01*
X124582923Y-78243536D01*
X124582674Y-78235611D01*
X124580462Y-78227997D01*
X124580461Y-78227992D01*
X124577023Y-78216159D01*
X124573012Y-78196795D01*
X124571467Y-78184564D01*
X124570474Y-78176703D01*
X124567557Y-78169336D01*
X124567556Y-78169331D01*
X124554198Y-78135592D01*
X124550354Y-78124365D01*
X124540230Y-78089522D01*
X124538018Y-78081907D01*
X124527707Y-78064472D01*
X124519012Y-78046724D01*
X124511552Y-78027883D01*
X124485564Y-77992113D01*
X124479048Y-77982193D01*
X124460580Y-77950965D01*
X124460578Y-77950962D01*
X124456542Y-77944138D01*
X124442221Y-77929817D01*
X124429380Y-77914783D01*
X124422131Y-77904806D01*
X124417472Y-77898393D01*
X124383395Y-77870202D01*
X124374616Y-77862212D01*
X123103405Y-76591000D01*
X123069379Y-76528688D01*
X123066500Y-76501905D01*
X123066500Y-76166928D01*
X123063960Y-76142446D01*
X123056419Y-76069765D01*
X123056418Y-76069761D01*
X123055707Y-76062907D01*
X123000654Y-75897893D01*
X122909116Y-75749969D01*
X122828184Y-75669178D01*
X122791184Y-75632242D01*
X122791179Y-75632238D01*
X122786003Y-75627071D01*
X122637920Y-75535791D01*
X122472809Y-75481026D01*
X122465973Y-75480326D01*
X122465970Y-75480325D01*
X122414474Y-75475049D01*
X122370072Y-75470500D01*
X121770928Y-75470500D01*
X121767682Y-75470837D01*
X121767678Y-75470837D01*
X121673765Y-75480581D01*
X121673761Y-75480582D01*
X121666907Y-75481293D01*
X121660371Y-75483474D01*
X121660369Y-75483474D01*
X121527605Y-75527768D01*
X121501893Y-75536346D01*
X121353969Y-75627884D01*
X121246899Y-75735141D01*
X121184618Y-75769220D01*
X121113798Y-75764217D01*
X121068709Y-75735296D01*
X120965871Y-75632637D01*
X120954460Y-75623625D01*
X120818937Y-75540088D01*
X120805759Y-75533944D01*
X120654234Y-75483685D01*
X120640868Y-75480819D01*
X120548230Y-75471328D01*
X120541815Y-75471000D01*
X120517615Y-75471000D01*
X120502376Y-75475475D01*
X120501171Y-75476865D01*
X120499500Y-75484548D01*
X120499500Y-77418885D01*
X120502643Y-77429589D01*
X120504868Y-77491869D01*
X120499500Y-77516547D01*
X120499500Y-79450885D01*
X120503975Y-79466124D01*
X120505365Y-79467329D01*
X120513048Y-79469000D01*
X120541766Y-79469000D01*
X120548282Y-79468663D01*
X120642132Y-79458925D01*
X120655528Y-79456032D01*
X120806953Y-79405512D01*
X120820115Y-79399347D01*
X120955492Y-79315574D01*
X120966890Y-79306540D01*
X121068393Y-79204860D01*
X121130676Y-79170781D01*
X121201496Y-79175784D01*
X121246583Y-79204704D01*
X121354997Y-79312929D01*
X121503080Y-79404209D01*
X121668191Y-79458974D01*
X121675027Y-79459674D01*
X121675030Y-79459675D01*
X121722370Y-79464525D01*
X121770928Y-79469500D01*
X122105905Y-79469500D01*
X122174026Y-79489502D01*
X122195001Y-79506405D01*
X122519596Y-79831001D01*
X122553621Y-79893313D01*
X122556500Y-79920096D01*
X122556500Y-83759406D01*
X122536498Y-83827527D01*
X122519595Y-83848501D01*
X121465494Y-84902601D01*
X121403182Y-84936627D01*
X121376399Y-84939506D01*
X121336814Y-84939506D01*
X121268693Y-84919504D01*
X121231022Y-84881946D01*
X121142831Y-84745623D01*
X121142829Y-84745620D01*
X121140023Y-84741283D01*
X120989679Y-84576057D01*
X120985628Y-84572858D01*
X120985624Y-84572854D01*
X120818423Y-84440806D01*
X120818419Y-84440804D01*
X120814368Y-84437604D01*
X120772578Y-84414535D01*
X120722607Y-84364103D01*
X120707835Y-84294660D01*
X120732951Y-84228254D01*
X120760303Y-84201647D01*
X120935337Y-84076798D01*
X120943209Y-84070145D01*
X121094061Y-83919818D01*
X121100739Y-83911971D01*
X121225012Y-83739026D01*
X121230322Y-83730189D01*
X121324679Y-83539273D01*
X121328478Y-83529678D01*
X121390386Y-83325916D01*
X121392564Y-83315843D01*
X121393995Y-83304968D01*
X121391784Y-83290784D01*
X121378626Y-83287006D01*
X118743234Y-83287006D01*
X118729703Y-83290979D01*
X118728266Y-83300972D01*
X118758574Y-83435452D01*
X118761654Y-83445281D01*
X118841779Y-83642609D01*
X118846422Y-83651800D01*
X118957703Y-83833394D01*
X118963786Y-83841705D01*
X119103222Y-84002673D01*
X119110589Y-84009889D01*
X119274443Y-84145922D01*
X119282890Y-84151837D01*
X119351978Y-84192209D01*
X119400702Y-84243848D01*
X119413773Y-84313631D01*
X119387042Y-84379402D01*
X119346593Y-84412758D01*
X119333616Y-84419513D01*
X119329483Y-84422616D01*
X119329480Y-84422618D01*
X119174679Y-84538846D01*
X119154974Y-84553641D01*
X119151402Y-84557379D01*
X119024594Y-84690076D01*
X119000638Y-84715144D01*
X118874752Y-84899686D01*
X118780697Y-85102311D01*
X118720998Y-85317576D01*
X118697260Y-85539701D01*
X118697557Y-85544854D01*
X118697557Y-85544857D01*
X118707905Y-85724315D01*
X118710119Y-85762721D01*
X118741959Y-85904000D01*
X118743460Y-85910662D01*
X118738924Y-85981513D01*
X118709638Y-86027458D01*
X117249500Y-87487595D01*
X117187188Y-87521621D01*
X117160405Y-87524500D01*
X111062575Y-87524500D01*
X110994454Y-87504498D01*
X110947961Y-87450842D01*
X110937312Y-87412108D01*
X110935745Y-87397684D01*
X110938174Y-87397420D01*
X110938174Y-87368580D01*
X110935745Y-87368316D01*
X110942131Y-87309531D01*
X110942500Y-87306134D01*
X110942500Y-86609866D01*
X110938091Y-86569280D01*
X110938091Y-86542067D01*
X110941631Y-86509483D01*
X110942000Y-86502672D01*
X110942000Y-86430115D01*
X110937525Y-86414876D01*
X110936135Y-86413671D01*
X110922590Y-86410725D01*
X110860278Y-86376701D01*
X110848556Y-86363182D01*
X110797261Y-86294739D01*
X110680705Y-86207385D01*
X110544316Y-86156255D01*
X110536464Y-86155402D01*
X110536460Y-86155401D01*
X110535185Y-86155263D01*
X110534259Y-86154878D01*
X110528778Y-86153575D01*
X110528989Y-86152688D01*
X110469623Y-86128021D01*
X110429196Y-86069659D01*
X110426740Y-85998704D01*
X110463035Y-85937686D01*
X110526557Y-85905977D01*
X110548792Y-85904000D01*
X110923884Y-85904000D01*
X110939123Y-85899525D01*
X110940328Y-85898135D01*
X110941999Y-85890452D01*
X110941999Y-85813331D01*
X110941629Y-85806510D01*
X110936105Y-85755648D01*
X110932479Y-85740396D01*
X110887324Y-85619946D01*
X110878786Y-85604351D01*
X110802285Y-85502276D01*
X110789724Y-85489715D01*
X110687649Y-85413214D01*
X110672054Y-85404676D01*
X110551606Y-85359522D01*
X110536351Y-85355895D01*
X110485486Y-85350369D01*
X110478672Y-85350000D01*
X110353934Y-85350000D01*
X110319892Y-85342335D01*
X110315648Y-85342000D01*
X109981115Y-85342000D01*
X109965876Y-85346475D01*
X109964671Y-85347865D01*
X109963000Y-85355548D01*
X109963000Y-85885885D01*
X109967475Y-85901124D01*
X109978053Y-85910290D01*
X110022214Y-85934404D01*
X110056239Y-85996716D01*
X110051175Y-86067532D01*
X110008628Y-86124368D01*
X109942108Y-86149179D01*
X109933119Y-86149500D01*
X109477137Y-86149500D01*
X109409016Y-86129498D01*
X109362523Y-86075842D01*
X109352419Y-86005568D01*
X109381913Y-85940988D01*
X109441639Y-85902604D01*
X109452124Y-85899525D01*
X109453329Y-85898135D01*
X109455000Y-85890452D01*
X109455000Y-85360115D01*
X109450525Y-85344876D01*
X109449135Y-85343671D01*
X109441452Y-85342000D01*
X109066115Y-85342000D01*
X109050876Y-85346475D01*
X109049671Y-85347865D01*
X109048000Y-85355548D01*
X109048000Y-85813874D01*
X109027998Y-85881995D01*
X108974342Y-85928488D01*
X108904068Y-85938592D01*
X108843461Y-85909176D01*
X108842187Y-85910843D01*
X108703743Y-85804994D01*
X108703739Y-85804991D01*
X108698322Y-85800850D01*
X108692142Y-85797968D01*
X108692140Y-85797967D01*
X108612750Y-85760947D01*
X108559465Y-85714030D01*
X108540000Y-85646752D01*
X108540000Y-85360115D01*
X108535525Y-85344876D01*
X108534135Y-85343671D01*
X108526452Y-85342000D01*
X107286076Y-85342000D01*
X107272545Y-85345973D01*
X107271425Y-85353768D01*
X107303138Y-85461521D01*
X107307731Y-85472889D01*
X107393607Y-85637154D01*
X107400321Y-85647415D01*
X107516468Y-85791873D01*
X107525045Y-85800632D01*
X107577110Y-85844319D01*
X107616436Y-85903428D01*
X107617563Y-85974416D01*
X107600331Y-86011663D01*
X107523723Y-86124388D01*
X107456470Y-86292534D01*
X107455356Y-86299262D01*
X107455355Y-86299266D01*
X107436216Y-86414876D01*
X107426892Y-86471198D01*
X107427249Y-86478015D01*
X107427249Y-86478019D01*
X107435061Y-86627072D01*
X107436370Y-86652047D01*
X107438181Y-86658620D01*
X107438181Y-86658623D01*
X107461671Y-86743902D01*
X107484461Y-86826641D01*
X107568922Y-86986836D01*
X107573330Y-86992052D01*
X107626828Y-87055359D01*
X107655519Y-87120300D01*
X107644546Y-87190443D01*
X107619684Y-87225781D01*
X107221961Y-87623504D01*
X107215696Y-87629357D01*
X107172726Y-87666842D01*
X107168359Y-87673056D01*
X107136506Y-87718378D01*
X107132573Y-87723674D01*
X107098394Y-87767263D01*
X107098392Y-87767266D01*
X107093708Y-87773240D01*
X107090582Y-87780164D01*
X107088744Y-87783199D01*
X107081500Y-87795898D01*
X107079812Y-87799046D01*
X107075444Y-87805261D01*
X107055048Y-87857576D01*
X107052567Y-87863939D01*
X107050022Y-87869995D01*
X107024087Y-87927435D01*
X107022702Y-87934908D01*
X107021631Y-87938326D01*
X107017646Y-87952315D01*
X107016749Y-87955807D01*
X107013988Y-87962889D01*
X107012996Y-87970422D01*
X107012996Y-87970423D01*
X107005767Y-88025330D01*
X107004735Y-88031843D01*
X107001463Y-88049500D01*
X106993255Y-88093787D01*
X106993692Y-88101367D01*
X106993692Y-88101368D01*
X106996791Y-88155112D01*
X106997000Y-88162365D01*
X106997000Y-90712139D01*
X106996708Y-90720709D01*
X106994373Y-90754961D01*
X106992830Y-90777590D01*
X103886000Y-90777590D01*
X103886000Y-86181933D01*
X103906002Y-86113812D01*
X103959658Y-86067319D01*
X104029932Y-86057215D01*
X104050099Y-86061831D01*
X104097541Y-86076881D01*
X104109532Y-86079430D01*
X104253761Y-86095607D01*
X104260785Y-86096000D01*
X104341885Y-86096000D01*
X104357124Y-86091525D01*
X104358329Y-86090135D01*
X104360000Y-86082452D01*
X104360000Y-86077885D01*
X104868000Y-86077885D01*
X104872475Y-86093124D01*
X104873865Y-86094329D01*
X104881548Y-86096000D01*
X104960657Y-86096000D01*
X104966805Y-86095699D01*
X105104603Y-86082188D01*
X105116638Y-86079805D01*
X105294076Y-86026233D01*
X105305416Y-86021559D01*
X105469077Y-85934540D01*
X105479294Y-85927751D01*
X105622933Y-85810603D01*
X105631637Y-85801959D01*
X105749784Y-85659144D01*
X105756644Y-85648973D01*
X105844804Y-85485924D01*
X105849556Y-85474619D01*
X105885250Y-85359308D01*
X105885456Y-85345205D01*
X105878701Y-85342000D01*
X104886115Y-85342000D01*
X104870876Y-85346475D01*
X104869671Y-85347865D01*
X104868000Y-85355548D01*
X104868000Y-86077885D01*
X104360000Y-86077885D01*
X104360000Y-84815885D01*
X104868000Y-84815885D01*
X104872475Y-84831124D01*
X104873865Y-84832329D01*
X104881548Y-84834000D01*
X105871924Y-84834000D01*
X105882839Y-84830795D01*
X107272544Y-84830795D01*
X107279299Y-84834000D01*
X108521885Y-84834000D01*
X108537124Y-84829525D01*
X108538329Y-84828135D01*
X108540000Y-84820452D01*
X108540000Y-84815885D01*
X109048000Y-84815885D01*
X109052475Y-84831124D01*
X109053865Y-84832329D01*
X109061548Y-84834000D01*
X110301924Y-84834000D01*
X110315455Y-84830027D01*
X110316575Y-84822232D01*
X110284862Y-84714479D01*
X110280269Y-84703111D01*
X110194393Y-84538846D01*
X110187679Y-84528585D01*
X110071532Y-84384127D01*
X110062954Y-84375368D01*
X109920961Y-84256222D01*
X109910841Y-84249292D01*
X109748415Y-84159998D01*
X109737142Y-84155166D01*
X109560462Y-84099120D01*
X109548468Y-84096570D01*
X109404239Y-84080393D01*
X109397215Y-84080000D01*
X109066115Y-84080000D01*
X109050876Y-84084475D01*
X109049671Y-84085865D01*
X109048000Y-84093548D01*
X109048000Y-84815885D01*
X108540000Y-84815885D01*
X108540000Y-84098115D01*
X108535525Y-84082876D01*
X108534135Y-84081671D01*
X108526452Y-84080000D01*
X108197343Y-84080000D01*
X108191195Y-84080301D01*
X108053397Y-84093812D01*
X108041362Y-84096195D01*
X107863924Y-84149767D01*
X107852584Y-84154441D01*
X107688923Y-84241460D01*
X107678706Y-84248249D01*
X107535067Y-84365397D01*
X107526363Y-84374041D01*
X107408216Y-84516856D01*
X107401356Y-84527027D01*
X107313196Y-84690076D01*
X107308444Y-84701381D01*
X107272750Y-84816692D01*
X107272544Y-84830795D01*
X105882839Y-84830795D01*
X105885455Y-84830027D01*
X105886575Y-84822232D01*
X105854862Y-84714479D01*
X105850269Y-84703111D01*
X105764393Y-84538846D01*
X105757679Y-84528585D01*
X105641532Y-84384127D01*
X105632954Y-84375368D01*
X105490961Y-84256222D01*
X105480841Y-84249292D01*
X105318415Y-84159998D01*
X105307142Y-84155166D01*
X105130462Y-84099120D01*
X105118468Y-84096570D01*
X104974239Y-84080393D01*
X104967215Y-84080000D01*
X104886115Y-84080000D01*
X104870876Y-84084475D01*
X104869671Y-84085865D01*
X104868000Y-84093548D01*
X104868000Y-84815885D01*
X104360000Y-84815885D01*
X104360000Y-84098115D01*
X104355525Y-84082876D01*
X104354135Y-84081671D01*
X104346452Y-84080000D01*
X104267343Y-84080000D01*
X104261195Y-84080301D01*
X104123397Y-84093812D01*
X104111362Y-84096195D01*
X104048418Y-84115199D01*
X103977424Y-84115740D01*
X103917407Y-84077812D01*
X103887423Y-84013458D01*
X103886000Y-83994577D01*
X103886000Y-82767189D01*
X118724398Y-82767189D01*
X118725921Y-82775613D01*
X118738301Y-82779006D01*
X119787894Y-82779006D01*
X119803133Y-82774531D01*
X119804338Y-82773141D01*
X119806009Y-82765458D01*
X119806009Y-82760891D01*
X120314009Y-82760891D01*
X120318484Y-82776130D01*
X120319874Y-82777335D01*
X120327557Y-82779006D01*
X121378353Y-82779006D01*
X121391884Y-82775033D01*
X121393189Y-82765953D01*
X121351223Y-82598881D01*
X121347903Y-82589130D01*
X121262981Y-82393820D01*
X121258114Y-82384745D01*
X121142435Y-82205932D01*
X121136145Y-82197763D01*
X120992815Y-82040246D01*
X120985282Y-82033221D01*
X120818148Y-81901228D01*
X120809561Y-81895523D01*
X120623126Y-81792605D01*
X120613714Y-81788375D01*
X120412968Y-81717286D01*
X120402997Y-81714652D01*
X120331846Y-81701978D01*
X120318549Y-81703438D01*
X120314009Y-81717995D01*
X120314009Y-82760891D01*
X119806009Y-82760891D01*
X119806009Y-81716108D01*
X119802091Y-81702764D01*
X119787815Y-81700777D01*
X119749333Y-81706666D01*
X119739297Y-81709057D01*
X119536877Y-81775218D01*
X119527368Y-81779215D01*
X119338472Y-81877548D01*
X119329747Y-81883042D01*
X119159442Y-82010911D01*
X119151735Y-82017754D01*
X119004599Y-82171723D01*
X118998113Y-82179733D01*
X118878107Y-82355655D01*
X118873009Y-82364629D01*
X118783347Y-82557789D01*
X118779784Y-82567476D01*
X118724398Y-82767189D01*
X103886000Y-82767189D01*
X103886000Y-78769766D01*
X119250000Y-78769766D01*
X119250337Y-78776282D01*
X119260075Y-78870132D01*
X119262968Y-78883528D01*
X119313488Y-79034953D01*
X119319653Y-79048115D01*
X119403426Y-79183492D01*
X119412460Y-79194890D01*
X119525129Y-79307363D01*
X119536540Y-79316375D01*
X119672063Y-79399912D01*
X119685241Y-79406056D01*
X119836766Y-79456315D01*
X119850132Y-79459181D01*
X119942770Y-79468672D01*
X119949185Y-79469000D01*
X119973385Y-79469000D01*
X119988624Y-79464525D01*
X119989829Y-79463135D01*
X119991500Y-79455452D01*
X119991500Y-78758115D01*
X119987025Y-78742876D01*
X119985635Y-78741671D01*
X119977952Y-78740000D01*
X119268115Y-78740000D01*
X119252876Y-78744475D01*
X119251671Y-78745865D01*
X119250000Y-78753548D01*
X119250000Y-78769766D01*
X103886000Y-78769766D01*
X103886000Y-76686924D01*
X113049418Y-76686924D01*
X113049835Y-76694150D01*
X113065179Y-76960257D01*
X113066004Y-76964462D01*
X113066005Y-76964470D01*
X113094848Y-77111483D01*
X113117889Y-77228923D01*
X113119276Y-77232974D01*
X113186592Y-77429589D01*
X113206573Y-77487950D01*
X113268917Y-77611908D01*
X113271495Y-77617032D01*
X113329591Y-77732544D01*
X113332017Y-77736073D01*
X113332020Y-77736079D01*
X113421604Y-77866423D01*
X113484666Y-77958179D01*
X113668929Y-78160681D01*
X113878969Y-78336302D01*
X113882595Y-78338577D01*
X113882597Y-78338578D01*
X113932703Y-78370009D01*
X114110901Y-78481792D01*
X114114803Y-78483554D01*
X114114807Y-78483556D01*
X114356520Y-78592694D01*
X114356524Y-78592696D01*
X114360432Y-78594460D01*
X114364551Y-78595680D01*
X114618832Y-78671002D01*
X114618837Y-78671003D01*
X114622945Y-78672220D01*
X114627179Y-78672868D01*
X114627184Y-78672869D01*
X114889340Y-78712984D01*
X114889342Y-78712984D01*
X114893582Y-78713633D01*
X115032913Y-78715822D01*
X115163045Y-78717867D01*
X115163051Y-78717867D01*
X115167336Y-78717934D01*
X115439141Y-78685042D01*
X115703967Y-78615566D01*
X115956914Y-78510792D01*
X116154056Y-78395591D01*
X116189598Y-78374822D01*
X116189599Y-78374821D01*
X116193301Y-78372658D01*
X116395793Y-78213885D01*
X119250000Y-78213885D01*
X119254475Y-78229124D01*
X119255865Y-78230329D01*
X119263548Y-78232000D01*
X119973385Y-78232000D01*
X119988624Y-78227525D01*
X119989829Y-78226135D01*
X119991500Y-78218452D01*
X119991500Y-77521115D01*
X119988357Y-77510411D01*
X119986132Y-77448131D01*
X119991500Y-77423453D01*
X119991500Y-76726115D01*
X119987025Y-76710876D01*
X119985635Y-76709671D01*
X119977952Y-76708000D01*
X119268115Y-76708000D01*
X119252876Y-76712475D01*
X119251671Y-76713865D01*
X119250000Y-76721548D01*
X119250000Y-76737766D01*
X119250337Y-76744282D01*
X119260075Y-76838132D01*
X119262968Y-76851528D01*
X119313488Y-77002953D01*
X119319653Y-77016115D01*
X119403426Y-77151492D01*
X119412460Y-77162890D01*
X119525129Y-77275363D01*
X119536540Y-77284375D01*
X119663556Y-77362668D01*
X119711049Y-77415440D01*
X119722473Y-77485511D01*
X119694199Y-77550635D01*
X119663743Y-77577073D01*
X119535504Y-77656429D01*
X119524110Y-77665460D01*
X119411637Y-77778129D01*
X119402625Y-77789540D01*
X119319088Y-77925063D01*
X119312944Y-77938241D01*
X119262685Y-78089766D01*
X119259819Y-78103132D01*
X119250328Y-78195770D01*
X119250000Y-78202185D01*
X119250000Y-78213885D01*
X116395793Y-78213885D01*
X116408754Y-78203722D01*
X116427320Y-78184564D01*
X116572011Y-78035254D01*
X116599286Y-78007108D01*
X116601819Y-78003660D01*
X116601823Y-78003655D01*
X116758834Y-77789909D01*
X116761372Y-77786454D01*
X116771859Y-77767140D01*
X116889962Y-77549621D01*
X116889963Y-77549619D01*
X116892012Y-77545845D01*
X116961131Y-77362927D01*
X116987271Y-77293750D01*
X116987272Y-77293746D01*
X116988789Y-77289732D01*
X117049912Y-77022854D01*
X117050514Y-77016115D01*
X117074031Y-76752616D01*
X117074251Y-76750151D01*
X117074313Y-76744282D01*
X117074666Y-76710485D01*
X117074692Y-76708000D01*
X117062468Y-76528688D01*
X117056362Y-76439123D01*
X117056361Y-76439117D01*
X117056070Y-76434846D01*
X117003685Y-76181885D01*
X119250000Y-76181885D01*
X119254475Y-76197124D01*
X119255865Y-76198329D01*
X119263548Y-76200000D01*
X119973385Y-76200000D01*
X119988624Y-76195525D01*
X119989829Y-76194135D01*
X119991500Y-76186452D01*
X119991500Y-75489115D01*
X119987025Y-75473876D01*
X119985635Y-75472671D01*
X119977952Y-75471000D01*
X119949234Y-75471000D01*
X119942718Y-75471337D01*
X119848868Y-75481075D01*
X119835472Y-75483968D01*
X119684047Y-75534488D01*
X119670885Y-75540653D01*
X119535508Y-75624426D01*
X119524110Y-75633460D01*
X119411637Y-75746129D01*
X119402625Y-75757540D01*
X119319088Y-75893063D01*
X119312944Y-75906241D01*
X119262685Y-76057766D01*
X119259819Y-76071132D01*
X119250328Y-76163770D01*
X119250000Y-76170185D01*
X119250000Y-76181885D01*
X117003685Y-76181885D01*
X117000550Y-76166747D01*
X116909157Y-75908664D01*
X116904211Y-75899080D01*
X116785550Y-75669178D01*
X116785549Y-75669177D01*
X116783585Y-75665371D01*
X116781122Y-75661866D01*
X116628619Y-75444877D01*
X116628614Y-75444871D01*
X116626155Y-75441372D01*
X116439782Y-75240811D01*
X116436466Y-75238097D01*
X116436463Y-75238094D01*
X116231233Y-75070114D01*
X116231226Y-75070109D01*
X116227915Y-75067399D01*
X115994472Y-74924345D01*
X115990555Y-74922626D01*
X115990552Y-74922624D01*
X115880232Y-74874197D01*
X115743775Y-74814297D01*
X115739647Y-74813121D01*
X115739644Y-74813120D01*
X115658557Y-74790022D01*
X115480462Y-74739290D01*
X115476220Y-74738686D01*
X115476214Y-74738685D01*
X115277596Y-74710418D01*
X115209406Y-74700713D01*
X115065671Y-74699961D01*
X114939908Y-74699302D01*
X114939902Y-74699302D01*
X114935622Y-74699280D01*
X114931378Y-74699839D01*
X114931374Y-74699839D01*
X114812397Y-74715503D01*
X114664177Y-74735016D01*
X114660037Y-74736149D01*
X114660035Y-74736149D01*
X114644251Y-74740467D01*
X114400093Y-74807261D01*
X114148257Y-74914678D01*
X113913329Y-75055280D01*
X113909978Y-75057964D01*
X113909976Y-75057966D01*
X113898202Y-75067399D01*
X113699657Y-75226463D01*
X113511194Y-75425062D01*
X113351428Y-75647400D01*
X113223314Y-75889364D01*
X113129225Y-76146477D01*
X113070899Y-76413980D01*
X113049418Y-76686924D01*
X103886000Y-76686924D01*
X103886000Y-72262000D01*
X103906002Y-72193879D01*
X103959658Y-72147386D01*
X104012000Y-72136000D01*
X126112000Y-72136000D01*
X126180121Y-72156002D01*
G37*
%TD.AperFunction*%
%TA.AperFunction,Conductor*%
G36*
X123236532Y-85027538D02*
G01*
X123293368Y-85070085D01*
X123318179Y-85136605D01*
X123318500Y-85145594D01*
X123318500Y-91633405D01*
X123298498Y-91701526D01*
X123281595Y-91722500D01*
X122481494Y-92522601D01*
X122419182Y-92556627D01*
X122392399Y-92559506D01*
X121336814Y-92559506D01*
X121268693Y-92539504D01*
X121231022Y-92501946D01*
X121142831Y-92365623D01*
X121142829Y-92365620D01*
X121140023Y-92361283D01*
X120989679Y-92196057D01*
X120985628Y-92192858D01*
X120985624Y-92192854D01*
X120818423Y-92060806D01*
X120818419Y-92060804D01*
X120814368Y-92057604D01*
X120773062Y-92034802D01*
X120723093Y-91984370D01*
X120708321Y-91914927D01*
X120733437Y-91848522D01*
X120760789Y-91821915D01*
X120851826Y-91756979D01*
X120939869Y-91694179D01*
X121098105Y-91536495D01*
X121228462Y-91355083D01*
X121279292Y-91252237D01*
X121325145Y-91159459D01*
X121325146Y-91159457D01*
X121327439Y-91154817D01*
X121392379Y-90941075D01*
X121421538Y-90719596D01*
X121421720Y-90712139D01*
X121423083Y-90656371D01*
X121423083Y-90656367D01*
X121423165Y-90653006D01*
X121404861Y-90430367D01*
X121350440Y-90213708D01*
X121261363Y-90008846D01*
X121140023Y-89821283D01*
X120989679Y-89656057D01*
X120985628Y-89652858D01*
X120985624Y-89652854D01*
X120818423Y-89520806D01*
X120818419Y-89520804D01*
X120814368Y-89517604D01*
X120773062Y-89494802D01*
X120723093Y-89444370D01*
X120708321Y-89374927D01*
X120733437Y-89308522D01*
X120760789Y-89281915D01*
X120804612Y-89250656D01*
X120939869Y-89154179D01*
X121098105Y-88996495D01*
X121228462Y-88815083D01*
X121327439Y-88614817D01*
X121392379Y-88401075D01*
X121421538Y-88179596D01*
X121423165Y-88113006D01*
X121404861Y-87890367D01*
X121350440Y-87673708D01*
X121261363Y-87468846D01*
X121196327Y-87368316D01*
X121142831Y-87285623D01*
X121142829Y-87285620D01*
X121140023Y-87281283D01*
X120989679Y-87116057D01*
X120985628Y-87112858D01*
X120985624Y-87112854D01*
X120818423Y-86980806D01*
X120818419Y-86980804D01*
X120814368Y-86977604D01*
X120773062Y-86954802D01*
X120723093Y-86904370D01*
X120708321Y-86834927D01*
X120733437Y-86768522D01*
X120760789Y-86741915D01*
X120877560Y-86658623D01*
X120939869Y-86614179D01*
X121098105Y-86456495D01*
X121155443Y-86376701D01*
X121225444Y-86279283D01*
X121228462Y-86275083D01*
X121230755Y-86270443D01*
X121232455Y-86267614D01*
X121284683Y-86219524D01*
X121340460Y-86206506D01*
X121612227Y-86206506D01*
X121623410Y-86207033D01*
X121630903Y-86208708D01*
X121638829Y-86208459D01*
X121638830Y-86208459D01*
X121698980Y-86206568D01*
X121702939Y-86206506D01*
X121730850Y-86206506D01*
X121734785Y-86206009D01*
X121734850Y-86206001D01*
X121746687Y-86205068D01*
X121778945Y-86204054D01*
X121782964Y-86203928D01*
X121790883Y-86203679D01*
X121810337Y-86198027D01*
X121829694Y-86194019D01*
X121841924Y-86192474D01*
X121841925Y-86192474D01*
X121849791Y-86191480D01*
X121857162Y-86188561D01*
X121857164Y-86188561D01*
X121890906Y-86175202D01*
X121902136Y-86171357D01*
X121936977Y-86161235D01*
X121936978Y-86161235D01*
X121944587Y-86159024D01*
X121951406Y-86154991D01*
X121951411Y-86154989D01*
X121962022Y-86148713D01*
X121979770Y-86140018D01*
X121998611Y-86132558D01*
X122034381Y-86106570D01*
X122044301Y-86100054D01*
X122075529Y-86081586D01*
X122075532Y-86081584D01*
X122082356Y-86077548D01*
X122096677Y-86063227D01*
X122111711Y-86050386D01*
X122121688Y-86043137D01*
X122128101Y-86038478D01*
X122156292Y-86004401D01*
X122164282Y-85995622D01*
X123103405Y-85056499D01*
X123165717Y-85022473D01*
X123236532Y-85027538D01*
G37*
%TD.AperFunction*%
%TA.AperFunction,Conductor*%
G36*
X118328882Y-89786502D02*
G01*
X118349856Y-89803405D01*
X118717462Y-90171011D01*
X118751488Y-90233323D01*
X118749784Y-90293778D01*
X118720998Y-90397576D01*
X118697260Y-90619701D01*
X118697557Y-90624859D01*
X118697431Y-90630030D01*
X118695589Y-90629985D01*
X118681351Y-90691331D01*
X118630458Y-90740833D01*
X118560882Y-90754961D01*
X118494712Y-90729231D01*
X118485363Y-90721273D01*
X118467348Y-90704356D01*
X118464507Y-90701602D01*
X118444770Y-90681865D01*
X118441573Y-90679385D01*
X118432551Y-90671680D01*
X118400321Y-90641414D01*
X118393375Y-90637595D01*
X118393372Y-90637593D01*
X118382566Y-90631652D01*
X118366047Y-90620801D01*
X118358011Y-90614568D01*
X118350041Y-90608386D01*
X118342772Y-90605241D01*
X118342768Y-90605238D01*
X118309463Y-90590826D01*
X118298813Y-90585609D01*
X118260060Y-90564305D01*
X118240437Y-90559267D01*
X118221734Y-90552863D01*
X118210420Y-90547967D01*
X118210419Y-90547967D01*
X118203145Y-90544819D01*
X118195322Y-90543580D01*
X118195312Y-90543577D01*
X118159476Y-90537901D01*
X118147856Y-90535495D01*
X118112711Y-90526472D01*
X118112710Y-90526472D01*
X118105030Y-90524500D01*
X118084776Y-90524500D01*
X118065065Y-90522949D01*
X118052886Y-90521020D01*
X118045057Y-90519780D01*
X118037165Y-90520526D01*
X118001039Y-90523941D01*
X117989181Y-90524500D01*
X111553581Y-90524500D01*
X111485460Y-90504498D01*
X111438967Y-90450842D01*
X111428863Y-90380568D01*
X111453616Y-90321800D01*
X111456471Y-90318079D01*
X111456478Y-90318071D01*
X111475119Y-90293778D01*
X111529524Y-90222876D01*
X111590838Y-90074851D01*
X111611751Y-89916000D01*
X111610673Y-89907811D01*
X111610673Y-89899554D01*
X111612288Y-89899554D01*
X111621759Y-89838803D01*
X111668885Y-89785702D01*
X111735744Y-89766500D01*
X118260761Y-89766500D01*
X118328882Y-89786502D01*
G37*
%TD.AperFunction*%
%TA.AperFunction,Conductor*%
G36*
X121201496Y-77143784D02*
G01*
X121246583Y-77172704D01*
X121354997Y-77280929D01*
X121361227Y-77284769D01*
X121361228Y-77284770D01*
X121487603Y-77362669D01*
X121535096Y-77415442D01*
X121546520Y-77485513D01*
X121518246Y-77550637D01*
X121487790Y-77577073D01*
X121423217Y-77617032D01*
X121353969Y-77659884D01*
X121246899Y-77767141D01*
X121184618Y-77801220D01*
X121113798Y-77796217D01*
X121068709Y-77767296D01*
X120965871Y-77664637D01*
X120954460Y-77655625D01*
X120827444Y-77577332D01*
X120779951Y-77524560D01*
X120768527Y-77454489D01*
X120796801Y-77389365D01*
X120827257Y-77362927D01*
X120955496Y-77283571D01*
X120966890Y-77274540D01*
X121068393Y-77172860D01*
X121130676Y-77138781D01*
X121201496Y-77143784D01*
G37*
%TD.AperFunction*%
%TD*%
M02*
