M48
; DRILL file {KiCad (6.0.1)} date Sat Feb  5 19:44:45 2022
; FORMAT={-:-/ absolute / inch / decimal}
; #@! TF.CreationDate,2022-02-05T19:44:45+08:00
; #@! TF.GenerationSoftware,Kicad,Pcbnew,(6.0.1)
; #@! TF.FileFunction,Plated,1,2,PTH
FMAT,2
INCH
; #@! TA.AperFunction,Plated,PTH,ViaDrill
T1C0.0157
; #@! TA.AperFunction,Plated,PTH,ComponentDrill
T2C0.0236
; #@! TA.AperFunction,Plated,PTH,ComponentDrill
T3C0.0394
%
G90
G05
T1
X4.13Y-3.44
X4.13Y-3.52
X4.13Y-3.6
X4.18Y-2.91
X4.18Y-3.06
X4.18Y-3.22
X4.19Y-3.81
X4.19Y-3.98
X4.2Y-4.14
X4.3Y-3.23
X4.31Y-2.91
X4.31Y-3.06
X4.33Y-3.81
X4.33Y-4.15
X4.34Y-4.0
X4.43Y-3.23
X4.43Y-3.43
X4.43Y-3.55
X4.44Y-3.81
X4.51Y-3.43
X4.51Y-3.55
X4.59Y-3.43
X4.59Y-3.55
X4.59Y-3.81
X4.61Y-3.23
X4.75Y-3.88
X4.75Y-4.03
X4.75Y-4.17
X4.77Y-2.9
X4.77Y-3.04
X4.77Y-3.17
X4.82Y-3.27
X4.82Y-3.47
X4.82Y-3.57
X4.82Y-3.77
X4.91Y-2.9
X4.92Y-3.04
X4.92Y-3.17
X4.92Y-3.32
X4.92Y-3.47
X4.92Y-3.67
X4.93Y-3.88
X4.93Y-4.03
X4.93Y-4.17
T3
X4.7268Y-3.269
X4.7268Y-3.369
X4.7268Y-3.469
X4.7268Y-3.569
X4.7268Y-3.669
X4.7268Y-3.769
T2
G00X4.1305Y-3.3499
M15
G01X4.1069Y-3.3499
M16
G05
G00X4.1305Y-3.6901
M15
G01X4.1069Y-3.6901
M16
G05
G00X4.3049Y-3.3499
M15
G01X4.2616Y-3.3499
M16
G05
G00X4.3049Y-3.6901
M15
G01X4.2616Y-3.6901
M16
G05
T0
M30
