%TF.GenerationSoftware,KiCad,Pcbnew,(6.0.1)*%
%TF.CreationDate,2022-02-05T19:44:41+08:00*%
%TF.ProjectId,Type-C_Ext,54797065-2d43-45f4-9578-742e6b696361,rev?*%
%TF.SameCoordinates,Original*%
%TF.FileFunction,Copper,L2,Bot*%
%TF.FilePolarity,Positive*%
%FSLAX46Y46*%
G04 Gerber Fmt 4.6, Leading zero omitted, Abs format (unit mm)*
G04 Created by KiCad (PCBNEW (6.0.1)) date 2022-02-05 19:44:41*
%MOMM*%
%LPD*%
G01*
G04 APERTURE LIST*
%TA.AperFunction,ComponentPad*%
%ADD10R,1.700000X1.700000*%
%TD*%
%TA.AperFunction,ComponentPad*%
%ADD11O,1.700000X1.700000*%
%TD*%
%TA.AperFunction,ComponentPad*%
%ADD12O,2.100000X1.000000*%
%TD*%
%TA.AperFunction,ComponentPad*%
%ADD13O,1.600000X1.000000*%
%TD*%
%TA.AperFunction,ViaPad*%
%ADD14C,0.800000*%
%TD*%
G04 APERTURE END LIST*
D10*
%TO.P,J2,1,Pin_1*%
%TO.N,VBUS*%
X120060009Y-95733006D03*
D11*
%TO.P,J2,2,Pin_2*%
%TO.N,/CC2*%
X120060009Y-93193006D03*
%TO.P,J2,3,Pin_3*%
%TO.N,/DP*%
X120060009Y-90653006D03*
%TO.P,J2,4,Pin_4*%
%TO.N,/DN*%
X120060009Y-88113006D03*
%TO.P,J2,5,Pin_5*%
%TO.N,/CC1*%
X120060009Y-85573006D03*
%TO.P,J2,6,Pin_6*%
%TO.N,GND*%
X120060009Y-83033006D03*
%TD*%
D12*
%TO.P,J1,S1,SHIELD*%
%TO.N,GND*%
X108794000Y-93728000D03*
X108794000Y-85088000D03*
D13*
X104614000Y-85088000D03*
X104614000Y-93728000D03*
%TD*%
D14*
%TO.N,GND*%
X121158000Y-77216000D03*
X122428000Y-88138000D03*
X124968000Y-88138000D03*
X116586000Y-90170000D03*
X120650000Y-102362000D03*
X117094000Y-82042000D03*
X124968000Y-84328000D03*
X122428000Y-95758000D03*
X112522000Y-82042000D03*
X114554000Y-87122000D03*
X122428000Y-83058000D03*
X122428000Y-90678000D03*
X125222000Y-98552000D03*
X116586000Y-96774000D03*
X110236000Y-101600000D03*
X109474000Y-77724000D03*
X106172000Y-81788000D03*
X120650000Y-105918000D03*
X109220000Y-82042000D03*
X120650000Y-98552000D03*
X106172000Y-73914000D03*
X125222000Y-102362000D03*
X106426000Y-101092000D03*
X124968000Y-77216000D03*
X106680000Y-105156000D03*
X106426000Y-96774000D03*
X114554000Y-90170000D03*
X109982000Y-96774000D03*
X125222000Y-105918000D03*
X121158000Y-73660000D03*
X112522000Y-87122000D03*
X121158000Y-80518000D03*
X124714000Y-73660000D03*
X124968000Y-80518000D03*
X106172000Y-77724000D03*
X104902000Y-89408000D03*
X124968000Y-93218000D03*
X112776000Y-96774000D03*
X104902000Y-87376000D03*
X116586000Y-87122000D03*
X109474000Y-73914000D03*
X109982000Y-105410000D03*
X104902000Y-91440000D03*
X112522000Y-90170000D03*
%TD*%
%TA.AperFunction,Conductor*%
%TO.N,GND*%
G36*
X126180121Y-72156002D02*
G01*
X126226614Y-72209658D01*
X126238000Y-72262000D01*
X126238000Y-106808000D01*
X126217998Y-106876121D01*
X126164342Y-106922614D01*
X126112000Y-106934000D01*
X104012000Y-106934000D01*
X103943879Y-106913998D01*
X103897386Y-106860342D01*
X103886000Y-106808000D01*
X103886000Y-102340924D01*
X113049418Y-102340924D01*
X113049835Y-102348150D01*
X113065179Y-102614257D01*
X113066004Y-102618462D01*
X113066005Y-102618470D01*
X113094848Y-102765483D01*
X113117889Y-102882923D01*
X113119276Y-102886974D01*
X113137275Y-102939544D01*
X113206573Y-103141950D01*
X113208499Y-103145779D01*
X113271495Y-103271032D01*
X113329591Y-103386544D01*
X113332017Y-103390073D01*
X113332020Y-103390079D01*
X113366642Y-103440454D01*
X113484666Y-103612179D01*
X113668929Y-103814681D01*
X113878969Y-103990302D01*
X114110901Y-104135792D01*
X114114803Y-104137554D01*
X114114807Y-104137556D01*
X114356520Y-104246694D01*
X114356524Y-104246696D01*
X114360432Y-104248460D01*
X114364551Y-104249680D01*
X114618832Y-104325002D01*
X114618837Y-104325003D01*
X114622945Y-104326220D01*
X114627179Y-104326868D01*
X114627184Y-104326869D01*
X114889340Y-104366984D01*
X114889342Y-104366984D01*
X114893582Y-104367633D01*
X115032913Y-104369822D01*
X115163045Y-104371867D01*
X115163051Y-104371867D01*
X115167336Y-104371934D01*
X115439141Y-104339042D01*
X115703967Y-104269566D01*
X115956914Y-104164792D01*
X116193301Y-104026658D01*
X116408754Y-103857722D01*
X116453539Y-103811508D01*
X116596303Y-103664186D01*
X116599286Y-103661108D01*
X116601819Y-103657660D01*
X116601823Y-103657655D01*
X116758834Y-103443909D01*
X116761372Y-103440454D01*
X116763418Y-103436686D01*
X116889962Y-103203621D01*
X116889963Y-103203619D01*
X116892012Y-103199845D01*
X116988789Y-102943732D01*
X117049912Y-102676854D01*
X117062031Y-102541075D01*
X117074031Y-102406616D01*
X117074251Y-102404151D01*
X117074692Y-102362000D01*
X117072964Y-102336653D01*
X117056362Y-102093123D01*
X117056361Y-102093117D01*
X117056070Y-102088846D01*
X117000550Y-101820747D01*
X116909157Y-101562664D01*
X116901277Y-101547395D01*
X116785550Y-101323178D01*
X116785549Y-101323177D01*
X116783585Y-101319371D01*
X116781122Y-101315866D01*
X116628619Y-101098877D01*
X116628614Y-101098871D01*
X116626155Y-101095372D01*
X116439782Y-100894811D01*
X116436466Y-100892097D01*
X116436463Y-100892094D01*
X116231233Y-100724114D01*
X116231226Y-100724109D01*
X116227915Y-100721399D01*
X115994472Y-100578345D01*
X115990555Y-100576626D01*
X115990552Y-100576624D01*
X115880232Y-100528197D01*
X115743775Y-100468297D01*
X115739647Y-100467121D01*
X115739644Y-100467120D01*
X115658557Y-100444022D01*
X115480462Y-100393290D01*
X115476220Y-100392686D01*
X115476214Y-100392685D01*
X115277596Y-100364418D01*
X115209406Y-100354713D01*
X115065671Y-100353961D01*
X114939908Y-100353302D01*
X114939902Y-100353302D01*
X114935622Y-100353280D01*
X114931378Y-100353839D01*
X114931374Y-100353839D01*
X114812397Y-100369503D01*
X114664177Y-100389016D01*
X114660037Y-100390149D01*
X114660035Y-100390149D01*
X114644251Y-100394467D01*
X114400093Y-100461261D01*
X114148257Y-100568678D01*
X113913329Y-100709280D01*
X113909978Y-100711964D01*
X113909976Y-100711966D01*
X113898202Y-100721399D01*
X113699657Y-100880463D01*
X113511194Y-101079062D01*
X113351428Y-101301400D01*
X113223314Y-101543364D01*
X113129225Y-101800477D01*
X113070899Y-102067980D01*
X113049418Y-102340924D01*
X103886000Y-102340924D01*
X103886000Y-94821933D01*
X103906002Y-94753812D01*
X103959658Y-94707319D01*
X104029932Y-94697215D01*
X104050099Y-94701831D01*
X104097541Y-94716881D01*
X104109532Y-94719430D01*
X104253761Y-94735607D01*
X104260785Y-94736000D01*
X104341885Y-94736000D01*
X104357124Y-94731525D01*
X104358329Y-94730135D01*
X104360000Y-94722452D01*
X104360000Y-94717885D01*
X104868000Y-94717885D01*
X104872475Y-94733124D01*
X104873865Y-94734329D01*
X104881548Y-94736000D01*
X104960657Y-94736000D01*
X104966805Y-94735699D01*
X105104603Y-94722188D01*
X105116638Y-94719805D01*
X105294076Y-94666233D01*
X105305416Y-94661559D01*
X105469077Y-94574540D01*
X105479294Y-94567751D01*
X105622933Y-94450603D01*
X105631637Y-94441959D01*
X105749784Y-94299144D01*
X105756644Y-94288973D01*
X105844804Y-94125924D01*
X105849556Y-94114619D01*
X105885250Y-93999308D01*
X105885331Y-93993768D01*
X107271425Y-93993768D01*
X107303138Y-94101521D01*
X107307731Y-94112889D01*
X107393607Y-94277154D01*
X107400321Y-94287415D01*
X107516468Y-94431873D01*
X107525046Y-94440632D01*
X107667039Y-94559778D01*
X107677159Y-94566708D01*
X107839585Y-94656002D01*
X107850858Y-94660834D01*
X108027538Y-94716880D01*
X108039532Y-94719430D01*
X108183761Y-94735607D01*
X108190785Y-94736000D01*
X108521885Y-94736000D01*
X108537124Y-94731525D01*
X108538329Y-94730135D01*
X108540000Y-94722452D01*
X108540000Y-94717885D01*
X109048000Y-94717885D01*
X109052475Y-94733124D01*
X109053865Y-94734329D01*
X109061548Y-94736000D01*
X109390657Y-94736000D01*
X109396805Y-94735699D01*
X109534603Y-94722188D01*
X109546638Y-94719805D01*
X109724076Y-94666233D01*
X109735416Y-94661559D01*
X109899077Y-94574540D01*
X109909294Y-94567751D01*
X110052933Y-94450603D01*
X110061637Y-94441959D01*
X110179784Y-94299144D01*
X110186644Y-94288973D01*
X110274804Y-94125924D01*
X110279556Y-94114619D01*
X110315250Y-93999308D01*
X110315456Y-93985205D01*
X110308701Y-93982000D01*
X109066115Y-93982000D01*
X109050876Y-93986475D01*
X109049671Y-93987865D01*
X109048000Y-93995548D01*
X109048000Y-94717885D01*
X108540000Y-94717885D01*
X108540000Y-94000115D01*
X108535525Y-93984876D01*
X108534135Y-93983671D01*
X108526452Y-93982000D01*
X107286076Y-93982000D01*
X107272545Y-93985973D01*
X107271425Y-93993768D01*
X105885331Y-93993768D01*
X105885456Y-93985205D01*
X105878701Y-93982000D01*
X104886115Y-93982000D01*
X104870876Y-93986475D01*
X104869671Y-93987865D01*
X104868000Y-93995548D01*
X104868000Y-94717885D01*
X104360000Y-94717885D01*
X104360000Y-93455885D01*
X104868000Y-93455885D01*
X104872475Y-93471124D01*
X104873865Y-93472329D01*
X104881548Y-93474000D01*
X105871924Y-93474000D01*
X105882839Y-93470795D01*
X107272544Y-93470795D01*
X107279299Y-93474000D01*
X110301924Y-93474000D01*
X110315455Y-93470027D01*
X110316575Y-93462232D01*
X110284862Y-93354479D01*
X110280269Y-93343111D01*
X110194393Y-93178846D01*
X110187679Y-93168585D01*
X110180536Y-93159701D01*
X118697260Y-93159701D01*
X118697557Y-93164854D01*
X118697557Y-93164857D01*
X118707735Y-93341381D01*
X118710119Y-93382721D01*
X118711256Y-93387767D01*
X118711257Y-93387773D01*
X118730042Y-93471124D01*
X118759231Y-93600645D01*
X118843275Y-93807622D01*
X118845974Y-93812026D01*
X118953728Y-93987865D01*
X118959996Y-93998094D01*
X119106259Y-94166944D01*
X119110239Y-94170248D01*
X119114990Y-94174193D01*
X119154625Y-94233096D01*
X119156122Y-94304077D01*
X119119006Y-94364599D01*
X119078733Y-94389118D01*
X118963304Y-94432391D01*
X118846748Y-94519745D01*
X118759394Y-94636301D01*
X118708264Y-94772690D01*
X118701509Y-94834872D01*
X118701509Y-96631140D01*
X118708264Y-96693322D01*
X118759394Y-96829711D01*
X118846748Y-96946267D01*
X118963304Y-97033621D01*
X119099693Y-97084751D01*
X119161875Y-97091506D01*
X120958143Y-97091506D01*
X121020325Y-97084751D01*
X121156714Y-97033621D01*
X121273270Y-96946267D01*
X121360624Y-96829711D01*
X121411754Y-96693322D01*
X121418509Y-96631140D01*
X121418509Y-94834872D01*
X121411754Y-94772690D01*
X121360624Y-94636301D01*
X121273270Y-94519745D01*
X121156714Y-94432391D01*
X121144141Y-94427678D01*
X121038212Y-94387966D01*
X120981448Y-94345324D01*
X120956748Y-94278762D01*
X120971956Y-94209414D01*
X120993502Y-94180733D01*
X121048503Y-94125924D01*
X121098105Y-94076495D01*
X121157603Y-93993695D01*
X121225444Y-93899283D01*
X121228462Y-93895083D01*
X121327439Y-93694817D01*
X121392379Y-93481075D01*
X121421538Y-93259596D01*
X121423165Y-93193006D01*
X121404861Y-92970367D01*
X121350440Y-92753708D01*
X121261363Y-92548846D01*
X121140023Y-92361283D01*
X120989679Y-92196057D01*
X120985628Y-92192858D01*
X120985624Y-92192854D01*
X120818423Y-92060806D01*
X120818419Y-92060804D01*
X120814368Y-92057604D01*
X120773062Y-92034802D01*
X120723093Y-91984370D01*
X120708321Y-91914927D01*
X120733437Y-91848522D01*
X120760789Y-91821915D01*
X120804612Y-91790656D01*
X120939869Y-91694179D01*
X121098105Y-91536495D01*
X121148807Y-91465936D01*
X121225444Y-91359283D01*
X121228462Y-91355083D01*
X121327439Y-91154817D01*
X121392379Y-90941075D01*
X121421538Y-90719596D01*
X121423165Y-90653006D01*
X121404861Y-90430367D01*
X121350440Y-90213708D01*
X121261363Y-90008846D01*
X121140023Y-89821283D01*
X120989679Y-89656057D01*
X120985628Y-89652858D01*
X120985624Y-89652854D01*
X120818423Y-89520806D01*
X120818419Y-89520804D01*
X120814368Y-89517604D01*
X120773062Y-89494802D01*
X120723093Y-89444370D01*
X120708321Y-89374927D01*
X120733437Y-89308522D01*
X120760789Y-89281915D01*
X120804612Y-89250656D01*
X120939869Y-89154179D01*
X121098105Y-88996495D01*
X121157603Y-88913695D01*
X121225444Y-88819283D01*
X121228462Y-88815083D01*
X121327439Y-88614817D01*
X121392379Y-88401075D01*
X121421538Y-88179596D01*
X121423165Y-88113006D01*
X121404861Y-87890367D01*
X121350440Y-87673708D01*
X121261363Y-87468846D01*
X121221915Y-87407868D01*
X121142831Y-87285623D01*
X121142829Y-87285620D01*
X121140023Y-87281283D01*
X120989679Y-87116057D01*
X120985628Y-87112858D01*
X120985624Y-87112854D01*
X120818423Y-86980806D01*
X120818419Y-86980804D01*
X120814368Y-86977604D01*
X120773062Y-86954802D01*
X120723093Y-86904370D01*
X120708321Y-86834927D01*
X120733437Y-86768522D01*
X120760789Y-86741915D01*
X120804612Y-86710656D01*
X120939869Y-86614179D01*
X121098105Y-86456495D01*
X121150232Y-86383953D01*
X121225444Y-86279283D01*
X121228462Y-86275083D01*
X121238161Y-86255460D01*
X121325145Y-86079459D01*
X121325146Y-86079457D01*
X121327439Y-86074817D01*
X121392379Y-85861075D01*
X121421538Y-85639596D01*
X121423165Y-85573006D01*
X121404861Y-85350367D01*
X121350440Y-85133708D01*
X121261363Y-84928846D01*
X121140023Y-84741283D01*
X120989679Y-84576057D01*
X120985628Y-84572858D01*
X120985624Y-84572854D01*
X120818423Y-84440806D01*
X120818419Y-84440804D01*
X120814368Y-84437604D01*
X120772578Y-84414535D01*
X120722607Y-84364103D01*
X120707835Y-84294660D01*
X120732951Y-84228254D01*
X120760303Y-84201647D01*
X120935337Y-84076798D01*
X120943209Y-84070145D01*
X121094061Y-83919818D01*
X121100739Y-83911971D01*
X121225012Y-83739026D01*
X121230322Y-83730189D01*
X121324679Y-83539273D01*
X121328478Y-83529678D01*
X121390386Y-83325916D01*
X121392564Y-83315843D01*
X121393995Y-83304968D01*
X121391784Y-83290784D01*
X121378626Y-83287006D01*
X118743234Y-83287006D01*
X118729703Y-83290979D01*
X118728266Y-83300972D01*
X118758574Y-83435452D01*
X118761654Y-83445281D01*
X118841779Y-83642609D01*
X118846422Y-83651800D01*
X118957703Y-83833394D01*
X118963786Y-83841705D01*
X119103222Y-84002673D01*
X119110589Y-84009889D01*
X119274443Y-84145922D01*
X119282890Y-84151837D01*
X119351978Y-84192209D01*
X119400702Y-84243848D01*
X119413773Y-84313631D01*
X119387042Y-84379402D01*
X119346593Y-84412758D01*
X119333616Y-84419513D01*
X119329483Y-84422616D01*
X119329480Y-84422618D01*
X119174679Y-84538846D01*
X119154974Y-84553641D01*
X119151402Y-84557379D01*
X119024594Y-84690076D01*
X119000638Y-84715144D01*
X118874752Y-84899686D01*
X118780697Y-85102311D01*
X118720998Y-85317576D01*
X118697260Y-85539701D01*
X118697557Y-85544854D01*
X118697557Y-85544857D01*
X118703560Y-85648973D01*
X118710119Y-85762721D01*
X118711256Y-85767767D01*
X118711257Y-85767773D01*
X118720910Y-85810603D01*
X118759231Y-85980645D01*
X118843275Y-86187622D01*
X118959996Y-86378094D01*
X119106259Y-86546944D01*
X119278135Y-86689638D01*
X119348604Y-86730817D01*
X119351454Y-86732482D01*
X119400178Y-86784120D01*
X119413249Y-86853903D01*
X119386518Y-86919675D01*
X119346064Y-86953033D01*
X119333616Y-86959513D01*
X119329483Y-86962616D01*
X119329480Y-86962618D01*
X119197924Y-87061393D01*
X119154974Y-87093641D01*
X119151402Y-87097379D01*
X119016991Y-87238032D01*
X119000638Y-87255144D01*
X118874752Y-87439686D01*
X118780697Y-87642311D01*
X118720998Y-87857576D01*
X118697260Y-88079701D01*
X118697557Y-88084854D01*
X118697557Y-88084857D01*
X118703020Y-88179596D01*
X118710119Y-88302721D01*
X118711256Y-88307767D01*
X118711257Y-88307773D01*
X118731128Y-88395945D01*
X118759231Y-88520645D01*
X118843275Y-88727622D01*
X118959996Y-88918094D01*
X119106259Y-89086944D01*
X119278135Y-89229638D01*
X119348604Y-89270817D01*
X119351454Y-89272482D01*
X119400178Y-89324120D01*
X119413249Y-89393903D01*
X119386518Y-89459675D01*
X119346064Y-89493033D01*
X119333616Y-89499513D01*
X119329483Y-89502616D01*
X119329480Y-89502618D01*
X119305256Y-89520806D01*
X119154974Y-89633641D01*
X119000638Y-89795144D01*
X118874752Y-89979686D01*
X118780697Y-90182311D01*
X118720998Y-90397576D01*
X118697260Y-90619701D01*
X118697557Y-90624854D01*
X118697557Y-90624857D01*
X118703020Y-90719596D01*
X118710119Y-90842721D01*
X118711256Y-90847767D01*
X118711257Y-90847773D01*
X118731128Y-90935945D01*
X118759231Y-91060645D01*
X118843275Y-91267622D01*
X118959996Y-91458094D01*
X119106259Y-91626944D01*
X119278135Y-91769638D01*
X119348604Y-91810817D01*
X119351454Y-91812482D01*
X119400178Y-91864120D01*
X119413249Y-91933903D01*
X119386518Y-91999675D01*
X119346064Y-92033033D01*
X119333616Y-92039513D01*
X119329483Y-92042616D01*
X119329480Y-92042618D01*
X119167877Y-92163953D01*
X119154974Y-92173641D01*
X119000638Y-92335144D01*
X118874752Y-92519686D01*
X118780697Y-92722311D01*
X118720998Y-92937576D01*
X118697260Y-93159701D01*
X110180536Y-93159701D01*
X110071532Y-93024127D01*
X110062954Y-93015368D01*
X109920961Y-92896222D01*
X109910841Y-92889292D01*
X109748415Y-92799998D01*
X109737142Y-92795166D01*
X109560462Y-92739120D01*
X109548468Y-92736570D01*
X109404239Y-92720393D01*
X109397215Y-92720000D01*
X109179023Y-92720000D01*
X109110902Y-92699998D01*
X109064409Y-92646342D01*
X109054305Y-92576068D01*
X109062034Y-92547208D01*
X109068995Y-92529803D01*
X109071530Y-92523466D01*
X109072644Y-92516738D01*
X109072645Y-92516734D01*
X109099993Y-92351539D01*
X109099993Y-92351536D01*
X109101108Y-92344802D01*
X109096203Y-92251198D01*
X109091987Y-92170766D01*
X109091630Y-92163953D01*
X109068304Y-92079266D01*
X109045352Y-91995941D01*
X109043539Y-91989359D01*
X108959078Y-91829164D01*
X108954673Y-91823951D01*
X108954670Y-91823947D01*
X108846594Y-91696057D01*
X108846590Y-91696053D01*
X108842187Y-91690843D01*
X108836762Y-91686695D01*
X108703743Y-91584994D01*
X108703739Y-91584991D01*
X108698322Y-91580850D01*
X108593186Y-91531825D01*
X108540369Y-91507195D01*
X108540366Y-91507194D01*
X108534192Y-91504315D01*
X108527544Y-91502829D01*
X108527541Y-91502828D01*
X108362494Y-91465936D01*
X108362495Y-91465936D01*
X108357457Y-91464810D01*
X108351912Y-91464500D01*
X108218756Y-91464500D01*
X108083963Y-91479143D01*
X108000609Y-91507195D01*
X107918796Y-91534728D01*
X107918794Y-91534729D01*
X107912325Y-91536906D01*
X107757095Y-91630177D01*
X107752138Y-91634865D01*
X107752135Y-91634867D01*
X107692943Y-91690843D01*
X107625515Y-91754607D01*
X107621683Y-91760245D01*
X107621680Y-91760249D01*
X107570740Y-91835205D01*
X107523723Y-91904388D01*
X107456470Y-92072534D01*
X107455356Y-92079262D01*
X107455355Y-92079266D01*
X107435388Y-92199876D01*
X107426892Y-92251198D01*
X107427249Y-92258015D01*
X107427249Y-92258019D01*
X107432151Y-92351539D01*
X107436370Y-92432047D01*
X107438181Y-92438620D01*
X107438181Y-92438623D01*
X107460510Y-92519686D01*
X107484461Y-92606641D01*
X107568922Y-92766836D01*
X107573327Y-92772049D01*
X107573330Y-92772053D01*
X107591694Y-92793783D01*
X107620386Y-92858724D01*
X107609413Y-92928868D01*
X107575092Y-92972754D01*
X107535067Y-93005397D01*
X107526363Y-93014041D01*
X107408216Y-93156856D01*
X107401356Y-93167027D01*
X107313196Y-93330076D01*
X107308444Y-93341381D01*
X107272750Y-93456692D01*
X107272544Y-93470795D01*
X105882839Y-93470795D01*
X105885455Y-93470027D01*
X105886575Y-93462232D01*
X105854862Y-93354479D01*
X105850269Y-93343111D01*
X105764393Y-93178846D01*
X105757679Y-93168585D01*
X105641532Y-93024127D01*
X105632954Y-93015368D01*
X105490961Y-92896222D01*
X105480841Y-92889292D01*
X105318415Y-92799998D01*
X105307142Y-92795166D01*
X105130462Y-92739120D01*
X105118468Y-92736570D01*
X104974239Y-92720393D01*
X104967215Y-92720000D01*
X104886115Y-92720000D01*
X104870876Y-92724475D01*
X104869671Y-92725865D01*
X104868000Y-92733548D01*
X104868000Y-93455885D01*
X104360000Y-93455885D01*
X104360000Y-92738115D01*
X104355525Y-92722876D01*
X104354135Y-92721671D01*
X104346452Y-92720000D01*
X104267343Y-92720000D01*
X104261195Y-92720301D01*
X104123397Y-92733812D01*
X104111362Y-92736195D01*
X104048418Y-92755199D01*
X103977424Y-92755740D01*
X103917407Y-92717812D01*
X103887423Y-92653458D01*
X103886000Y-92634577D01*
X103886000Y-86181933D01*
X103906002Y-86113812D01*
X103959658Y-86067319D01*
X104029932Y-86057215D01*
X104050099Y-86061831D01*
X104097541Y-86076881D01*
X104109532Y-86079430D01*
X104253761Y-86095607D01*
X104260785Y-86096000D01*
X104341885Y-86096000D01*
X104357124Y-86091525D01*
X104358329Y-86090135D01*
X104360000Y-86082452D01*
X104360000Y-86077885D01*
X104868000Y-86077885D01*
X104872475Y-86093124D01*
X104873865Y-86094329D01*
X104881548Y-86096000D01*
X104960657Y-86096000D01*
X104966805Y-86095699D01*
X105104603Y-86082188D01*
X105116638Y-86079805D01*
X105294076Y-86026233D01*
X105305416Y-86021559D01*
X105469077Y-85934540D01*
X105479294Y-85927751D01*
X105622933Y-85810603D01*
X105631637Y-85801959D01*
X105749784Y-85659144D01*
X105756644Y-85648973D01*
X105844804Y-85485924D01*
X105849556Y-85474619D01*
X105885250Y-85359308D01*
X105885331Y-85353768D01*
X107271425Y-85353768D01*
X107303138Y-85461521D01*
X107307731Y-85472889D01*
X107393607Y-85637154D01*
X107400321Y-85647415D01*
X107516468Y-85791873D01*
X107525045Y-85800632D01*
X107577110Y-85844319D01*
X107616436Y-85903428D01*
X107617563Y-85974416D01*
X107600331Y-86011663D01*
X107523723Y-86124388D01*
X107456470Y-86292534D01*
X107455356Y-86299262D01*
X107455355Y-86299266D01*
X107430021Y-86452298D01*
X107426892Y-86471198D01*
X107427249Y-86478015D01*
X107427249Y-86478019D01*
X107435061Y-86627072D01*
X107436370Y-86652047D01*
X107438181Y-86658620D01*
X107438181Y-86658623D01*
X107482648Y-86820059D01*
X107484461Y-86826641D01*
X107568922Y-86986836D01*
X107573327Y-86992049D01*
X107573330Y-86992053D01*
X107681406Y-87119943D01*
X107681410Y-87119947D01*
X107685813Y-87125157D01*
X107691237Y-87129304D01*
X107691238Y-87129305D01*
X107824257Y-87231006D01*
X107824261Y-87231009D01*
X107829678Y-87235150D01*
X107916372Y-87275576D01*
X107987631Y-87308805D01*
X107987634Y-87308806D01*
X107993808Y-87311685D01*
X108000456Y-87313171D01*
X108000459Y-87313172D01*
X108106421Y-87336857D01*
X108170543Y-87351190D01*
X108176088Y-87351500D01*
X108309244Y-87351500D01*
X108444037Y-87336857D01*
X108609171Y-87281283D01*
X108609204Y-87281272D01*
X108609206Y-87281271D01*
X108615675Y-87279094D01*
X108770905Y-87185823D01*
X108775862Y-87181135D01*
X108775865Y-87181133D01*
X108897527Y-87066082D01*
X108897529Y-87066080D01*
X108902485Y-87061393D01*
X108906317Y-87055755D01*
X108906320Y-87055751D01*
X109000442Y-86917255D01*
X109004277Y-86911612D01*
X109071530Y-86743466D01*
X109072644Y-86736738D01*
X109072645Y-86736734D01*
X109099993Y-86571539D01*
X109099993Y-86571536D01*
X109101108Y-86564802D01*
X109100346Y-86550246D01*
X109091987Y-86390766D01*
X109091630Y-86383953D01*
X109088805Y-86373695D01*
X109066449Y-86292534D01*
X109056237Y-86255459D01*
X109057431Y-86184474D01*
X109096814Y-86125401D01*
X109161881Y-86096999D01*
X109177713Y-86096000D01*
X109390657Y-86096000D01*
X109396805Y-86095699D01*
X109534603Y-86082188D01*
X109546638Y-86079805D01*
X109724076Y-86026233D01*
X109735416Y-86021559D01*
X109899077Y-85934540D01*
X109909294Y-85927751D01*
X110052933Y-85810603D01*
X110061637Y-85801959D01*
X110179784Y-85659144D01*
X110186644Y-85648973D01*
X110274804Y-85485924D01*
X110279556Y-85474619D01*
X110315250Y-85359308D01*
X110315456Y-85345205D01*
X110308701Y-85342000D01*
X107286076Y-85342000D01*
X107272545Y-85345973D01*
X107271425Y-85353768D01*
X105885331Y-85353768D01*
X105885456Y-85345205D01*
X105878701Y-85342000D01*
X104886115Y-85342000D01*
X104870876Y-85346475D01*
X104869671Y-85347865D01*
X104868000Y-85355548D01*
X104868000Y-86077885D01*
X104360000Y-86077885D01*
X104360000Y-84815885D01*
X104868000Y-84815885D01*
X104872475Y-84831124D01*
X104873865Y-84832329D01*
X104881548Y-84834000D01*
X105871924Y-84834000D01*
X105882839Y-84830795D01*
X107272544Y-84830795D01*
X107279299Y-84834000D01*
X108521885Y-84834000D01*
X108537124Y-84829525D01*
X108538329Y-84828135D01*
X108540000Y-84820452D01*
X108540000Y-84815885D01*
X109048000Y-84815885D01*
X109052475Y-84831124D01*
X109053865Y-84832329D01*
X109061548Y-84834000D01*
X110301924Y-84834000D01*
X110315455Y-84830027D01*
X110316575Y-84822232D01*
X110284862Y-84714479D01*
X110280269Y-84703111D01*
X110194393Y-84538846D01*
X110187679Y-84528585D01*
X110071532Y-84384127D01*
X110062954Y-84375368D01*
X109920961Y-84256222D01*
X109910841Y-84249292D01*
X109748415Y-84159998D01*
X109737142Y-84155166D01*
X109560462Y-84099120D01*
X109548468Y-84096570D01*
X109404239Y-84080393D01*
X109397215Y-84080000D01*
X109066115Y-84080000D01*
X109050876Y-84084475D01*
X109049671Y-84085865D01*
X109048000Y-84093548D01*
X109048000Y-84815885D01*
X108540000Y-84815885D01*
X108540000Y-84098115D01*
X108535525Y-84082876D01*
X108534135Y-84081671D01*
X108526452Y-84080000D01*
X108197343Y-84080000D01*
X108191195Y-84080301D01*
X108053397Y-84093812D01*
X108041362Y-84096195D01*
X107863924Y-84149767D01*
X107852584Y-84154441D01*
X107688923Y-84241460D01*
X107678706Y-84248249D01*
X107535067Y-84365397D01*
X107526363Y-84374041D01*
X107408216Y-84516856D01*
X107401356Y-84527027D01*
X107313196Y-84690076D01*
X107308444Y-84701381D01*
X107272750Y-84816692D01*
X107272544Y-84830795D01*
X105882839Y-84830795D01*
X105885455Y-84830027D01*
X105886575Y-84822232D01*
X105854862Y-84714479D01*
X105850269Y-84703111D01*
X105764393Y-84538846D01*
X105757679Y-84528585D01*
X105641532Y-84384127D01*
X105632954Y-84375368D01*
X105490961Y-84256222D01*
X105480841Y-84249292D01*
X105318415Y-84159998D01*
X105307142Y-84155166D01*
X105130462Y-84099120D01*
X105118468Y-84096570D01*
X104974239Y-84080393D01*
X104967215Y-84080000D01*
X104886115Y-84080000D01*
X104870876Y-84084475D01*
X104869671Y-84085865D01*
X104868000Y-84093548D01*
X104868000Y-84815885D01*
X104360000Y-84815885D01*
X104360000Y-84098115D01*
X104355525Y-84082876D01*
X104354135Y-84081671D01*
X104346452Y-84080000D01*
X104267343Y-84080000D01*
X104261195Y-84080301D01*
X104123397Y-84093812D01*
X104111362Y-84096195D01*
X104048418Y-84115199D01*
X103977424Y-84115740D01*
X103917407Y-84077812D01*
X103887423Y-84013458D01*
X103886000Y-83994577D01*
X103886000Y-82767189D01*
X118724398Y-82767189D01*
X118725921Y-82775613D01*
X118738301Y-82779006D01*
X119787894Y-82779006D01*
X119803133Y-82774531D01*
X119804338Y-82773141D01*
X119806009Y-82765458D01*
X119806009Y-82760891D01*
X120314009Y-82760891D01*
X120318484Y-82776130D01*
X120319874Y-82777335D01*
X120327557Y-82779006D01*
X121378353Y-82779006D01*
X121391884Y-82775033D01*
X121393189Y-82765953D01*
X121351223Y-82598881D01*
X121347903Y-82589130D01*
X121262981Y-82393820D01*
X121258114Y-82384745D01*
X121142435Y-82205932D01*
X121136145Y-82197763D01*
X120992815Y-82040246D01*
X120985282Y-82033221D01*
X120818148Y-81901228D01*
X120809561Y-81895523D01*
X120623126Y-81792605D01*
X120613714Y-81788375D01*
X120412968Y-81717286D01*
X120402997Y-81714652D01*
X120331846Y-81701978D01*
X120318549Y-81703438D01*
X120314009Y-81717995D01*
X120314009Y-82760891D01*
X119806009Y-82760891D01*
X119806009Y-81716108D01*
X119802091Y-81702764D01*
X119787815Y-81700777D01*
X119749333Y-81706666D01*
X119739297Y-81709057D01*
X119536877Y-81775218D01*
X119527368Y-81779215D01*
X119338472Y-81877548D01*
X119329747Y-81883042D01*
X119159442Y-82010911D01*
X119151735Y-82017754D01*
X119004599Y-82171723D01*
X118998113Y-82179733D01*
X118878107Y-82355655D01*
X118873009Y-82364629D01*
X118783347Y-82557789D01*
X118779784Y-82567476D01*
X118724398Y-82767189D01*
X103886000Y-82767189D01*
X103886000Y-76686924D01*
X113049418Y-76686924D01*
X113049835Y-76694150D01*
X113065179Y-76960257D01*
X113066004Y-76964462D01*
X113066005Y-76964470D01*
X113094848Y-77111483D01*
X113117889Y-77228923D01*
X113119276Y-77232974D01*
X113137275Y-77285544D01*
X113206573Y-77487950D01*
X113208499Y-77491779D01*
X113271495Y-77617032D01*
X113329591Y-77732544D01*
X113332017Y-77736073D01*
X113332020Y-77736079D01*
X113366642Y-77786454D01*
X113484666Y-77958179D01*
X113668929Y-78160681D01*
X113878969Y-78336302D01*
X114110901Y-78481792D01*
X114114803Y-78483554D01*
X114114807Y-78483556D01*
X114356520Y-78592694D01*
X114356524Y-78592696D01*
X114360432Y-78594460D01*
X114364551Y-78595680D01*
X114618832Y-78671002D01*
X114618837Y-78671003D01*
X114622945Y-78672220D01*
X114627179Y-78672868D01*
X114627184Y-78672869D01*
X114889340Y-78712984D01*
X114889342Y-78712984D01*
X114893582Y-78713633D01*
X115032913Y-78715822D01*
X115163045Y-78717867D01*
X115163051Y-78717867D01*
X115167336Y-78717934D01*
X115439141Y-78685042D01*
X115703967Y-78615566D01*
X115956914Y-78510792D01*
X116193301Y-78372658D01*
X116408754Y-78203722D01*
X116453539Y-78157508D01*
X116596303Y-78010186D01*
X116599286Y-78007108D01*
X116601819Y-78003660D01*
X116601823Y-78003655D01*
X116758834Y-77789909D01*
X116761372Y-77786454D01*
X116763418Y-77782686D01*
X116889962Y-77549621D01*
X116889963Y-77549619D01*
X116892012Y-77545845D01*
X116988789Y-77289732D01*
X117049912Y-77022854D01*
X117062031Y-76887075D01*
X117074031Y-76752616D01*
X117074251Y-76750151D01*
X117074692Y-76708000D01*
X117072964Y-76682653D01*
X117056362Y-76439123D01*
X117056361Y-76439117D01*
X117056070Y-76434846D01*
X117000550Y-76166747D01*
X116909157Y-75908664D01*
X116901277Y-75893395D01*
X116785550Y-75669178D01*
X116785549Y-75669177D01*
X116783585Y-75665371D01*
X116781122Y-75661866D01*
X116628619Y-75444877D01*
X116628614Y-75444871D01*
X116626155Y-75441372D01*
X116439782Y-75240811D01*
X116436466Y-75238097D01*
X116436463Y-75238094D01*
X116231233Y-75070114D01*
X116231226Y-75070109D01*
X116227915Y-75067399D01*
X115994472Y-74924345D01*
X115990555Y-74922626D01*
X115990552Y-74922624D01*
X115880232Y-74874197D01*
X115743775Y-74814297D01*
X115739647Y-74813121D01*
X115739644Y-74813120D01*
X115658557Y-74790022D01*
X115480462Y-74739290D01*
X115476220Y-74738686D01*
X115476214Y-74738685D01*
X115277596Y-74710418D01*
X115209406Y-74700713D01*
X115065671Y-74699961D01*
X114939908Y-74699302D01*
X114939902Y-74699302D01*
X114935622Y-74699280D01*
X114931378Y-74699839D01*
X114931374Y-74699839D01*
X114812397Y-74715503D01*
X114664177Y-74735016D01*
X114660037Y-74736149D01*
X114660035Y-74736149D01*
X114644251Y-74740467D01*
X114400093Y-74807261D01*
X114148257Y-74914678D01*
X113913329Y-75055280D01*
X113909978Y-75057964D01*
X113909976Y-75057966D01*
X113898202Y-75067399D01*
X113699657Y-75226463D01*
X113511194Y-75425062D01*
X113351428Y-75647400D01*
X113223314Y-75889364D01*
X113129225Y-76146477D01*
X113070899Y-76413980D01*
X113049418Y-76686924D01*
X103886000Y-76686924D01*
X103886000Y-72262000D01*
X103906002Y-72193879D01*
X103959658Y-72147386D01*
X104012000Y-72136000D01*
X126112000Y-72136000D01*
X126180121Y-72156002D01*
G37*
%TD.AperFunction*%
%TD*%
M02*
